<?xml version="1.0" encoding="UTF-8"?><svg id="a" xmlns="http://www.w3.org/2000/svg" viewBox="0 0 128 128"><defs><style>.b,.c{fill:none;stroke:#000;stroke-miterlimit:10;stroke-width:3.5px;}.c{stroke-linecap:round;}</style></defs><path d="M94.251,51.843c.092,1.534-.056,3.585-1.35,5.177-1.282,1.576-2.973,1.822-4.41,2.45-2.142.936-4.74,3.165-6.657,8.883,2.221.89,3.549-1.273,6.163-.782-3.434,2.356-6.304,4.587-9.412,6.412-13.504,7.931-17.452,15.445-16.671,35.022.079,1.97.118,4.003-.169,5.959-.392,2.672-2.124,3.99-4.877,3.992-3.39.002-5.005-2.789-5.131-5.382-.572-11.747-1.886-22.189,4.842-32.963,1.947-3.118.764-.951,7.375-12.462,3.188-5.552,4.81-8.606,8.217-9.888,1.187-.446,3.583-1.051,5.459-1.443,1.883-.393,2.028-.318,4.752-.792,3.958-.688,5.981-1.05,8.112-1.99,1.673-.738,2.938-1.583,3.756-2.193h0Z"/><path d="M66.465,60.11c-1.958,2.924-3.698,5.715-5.154,8.66-.684,1.385-2.303,2.38-4.856,2.985-9.78,2.319-11.33-.018-17.138,15.045-.532,1.379-1.138,2.804-1.999,4.002-1.485,2.066-3.633,2.164-5.844,1.353-2.178-.798-2.219-4.161-1.599-5.884,4.036-11.221,3.021-7.848,7.535-17.317,1.076-2.258,2.364-2.882,3.626-3.265,14.802-4.487,19.278-4.408,25.429-5.579h0Z"/><path d="M85.187,16.166c3.695-3.487,7.049-6.652,10.641-10.042.267-.252.704-.157.85.18.993,2.29.478,4.409.524,6.402.178,7.765.918,8.604,8.466,9.027.673.038,1.344.109,2.159.199.819.09,1.225,1.046.72,1.698-1.835,2.365-3.476,4.503-4.822,6.853-2.27,3.965-1.298,6.922,1.983,9.582,2.498,2.026,4.981,4.069,7.776,6.361.827.679.614,2.015-.392,2.378-.302.109-.567.184-.838.216-8.477,1.003-13.314,5.304-13.256,14.267.021,3.175-1.597,3.9-3.998,1.94-2.491-2.033-4.799-1.288-7.593-.081-.463.2-.917-.321-.651-.75,1.652-2.663,3.383-4.173,6.64-3.286,1.365.372,2.368-.052,2.413-1.592.197-6.647,2.449-11.741,9.461-12.738.289-.041.491-.308.455-.597-.176-1.42-1.082-1.788-1.76-2.301-6.687-5.066-7.438-7.392-4.287-15.244.895-2.231,1.451-3.457-1.697-4.041-3.157-.587-3.863-3.527-3.984-6.212-.149-3.297-1.018-4.257-4.061-2.3-1.165.749-2.529,1.361-4.494.988-.417-.079-.563-.614-.255-.905Z"/><path d="M113.966,35.973c7.28.139,10.472,3.825,10.821,10.567.309,5.959-3.736,10.908-9.727,11.963-1.678.296-3.285.128-4.91-.318-2.042-.561-4.223-1.874-4.375-3.594-.177-1.998,2.593-2.04,4.199-2.594,2.743-.946,7.017-.789,7.589-3.542.593-2.855-2.673-4.1-5.589-6.416-.976-.775.279.293-.476-.32-1.49-1.211-3.334-1.855-2.325-3.842,1.148-2.26,3.042-1.904,4.792-1.904h0Z"/><path d="M103.694,57.668c.342.23.783.463,1.15.782,6.009,5.223,12.011,10.454,18.006,15.693.372.325.966.874,1.32,1.218,1.213,1.18,3.742,4.434,1.227,6.417-2.317,1.828-4.421.06-6.182-1.32-5.091-3.988-9.936-8.291-15.061-12.231-3.351-2.575-3.188-6.236-2.089-9.078.3-.777.404-1.628,1.629-1.48Z"/><line class="c" x1="68.674" y1="25.747" x2="24.756" y2="25.747"/><line class="c" x1="61.184" y1="38.725" x2="8.068" y2="38.725"/><line class="c" x1="66.465" y1="50.974" x2="42.543" y2="50.974"/><circle class="b" cx="82.383" cy="38.624" r="4.795"/><circle class="b" cx="82.383" cy="38.624" r="12.293"/></svg>