<?xml version="1.0" encoding="UTF-8"?><svg id="a" xmlns="http://www.w3.org/2000/svg" viewBox="0 0 128 128"><defs><style>.b,.c{fill:none;stroke:#000;stroke-miterlimit:10;stroke-width:3.5px;}.c{stroke-linecap:round;}</style></defs><path d="M94.25,51.84c.09,1.53-.06,3.59-1.35,5.18-1.28,1.58-2.97,1.82-4.41,2.45-2.14.94-4.74,3.17-6.66,8.88,2.22.89,3.55-1.27,6.16-.78-3.43,2.36-6.3,4.59-9.41,6.41-13.5,7.93-17.45,15.44-16.67,35.02.08,1.97.12,4-.17,5.96-.39,2.67-2.12,3.99-4.88,3.99-3.39,0-5-2.79-5.13-5.38-.57-11.75-1.89-22.19,4.84-32.96,1.95-3.12.76-.95,7.38-12.46,3.19-5.55,4.81-8.61,8.22-9.89,1.19-.45,3.58-1.05,5.46-1.44,1.88-.39,2.03-.32,4.75-.79,3.96-.69,5.98-1.05,8.11-1.99,1.67-.74,2.94-1.58,3.76-2.19Z"/><path d="M66.47,60.11c-1.96,2.92-3.7,5.71-5.15,8.66q-1.03,2.08-4.86,2.98c-9.78,2.32-11.33-.02-17.14,15.05-.53,1.38-1.14,2.8-2,4-1.48,2.07-3.63,2.16-5.84,1.35-2.18-.8-2.22-4.16-1.6-5.88,4.04-11.22,3.02-7.85,7.53-17.32,1.08-2.26,2.36-2.88,3.63-3.26,14.8-4.49,19.28-4.41,25.43-5.58Z"/><path d="M85.19,16.17c3.7-3.49,7.05-6.65,10.64-10.04.27-.25.7-.16.85.18.99,2.29.48,4.41.52,6.4.18,7.77.92,8.6,8.47,9.03.67.04,1.34.11,2.16.2s1.22,1.05.72,1.7c-1.83,2.37-3.48,4.5-4.82,6.85-2.27,3.97-1.3,6.92,1.98,9.58,2.5,2.03,4.98,4.07,7.78,6.36.83.68.61,2.01-.39,2.38-.3.11-.57.18-.84.22-8.48,1-13.31,5.3-13.26,14.27.02,3.17-1.6,3.9-4,1.94-2.49-2.03-4.8-1.29-7.59-.08-.46.2-.92-.32-.65-.75,1.65-2.66,3.38-4.17,6.64-3.29,1.36.37,2.37-.05,2.41-1.59.2-6.65,2.45-11.74,9.46-12.74.29-.04.49-.31.45-.6-.18-1.42-1.08-1.79-1.76-2.3-6.69-5.07-7.44-7.39-4.29-15.24.9-2.23,1.45-3.46-1.7-4.04-3.16-.59-3.86-3.53-3.98-6.21-.15-3.3-1.02-4.26-4.06-2.3-1.16.75-2.53,1.36-4.49.99-.42-.08-.56-.61-.25-.9Z"/><path d="M113.97,35.97c7.28.14,10.47,3.82,10.82,10.57.31,5.96-3.74,10.91-9.73,11.96-1.68.3-3.28.13-4.91-.32-2.04-.56-4.22-1.87-4.37-3.59-.18-2,2.59-2.04,4.2-2.59,2.74-.95,7.02-.79,7.59-3.54.59-2.86-2.67-4.1-5.59-6.42-.98-.78.28.29-.48-.32-1.49-1.21-3.33-1.86-2.32-3.84,1.15-2.26,3.04-1.9,4.79-1.9Z"/><path d="M103.69,57.67c.34.23.78.46,1.15.78,6.01,5.22,12.01,10.45,18.01,15.69.37.33.97.87,1.32,1.22,1.21,1.18,3.74,4.43,1.23,6.42-2.32,1.83-4.42.06-6.18-1.32-5.09-3.99-9.94-8.29-15.06-12.23-3.35-2.58-3.19-6.24-2.09-9.08.3-.78.4-1.63,1.63-1.48Z"/><line class="c" x1="68.67" y1="25.75" x2="24.76" y2="25.75"/><line class="c" x1="61.18" y1="38.73" x2="8.07" y2="38.73"/><line class="c" x1="66.47" y1="50.97" x2="42.54" y2="50.97"/><circle class="b" cx="82.38" cy="38.62" r="4.8"/><circle class="b" cx="82.38" cy="38.62" r="12.29"/></svg>