<?xml version="1.0" encoding="UTF-8"?><svg id="a" xmlns="http://www.w3.org/2000/svg" viewBox="0 0 128 128"><defs><style>.b,.c{fill:none;stroke:#000;stroke-miterlimit:10;stroke-width:3.5px;}.c{stroke-linecap:round;}</style></defs><path d="M94.25086,51.84257c.09225,1.53353-.05591,3.58538-1.35027,5.17694-1.28179,1.5761-2.9733,1.82246-4.40968,2.44983-2.14189.9355-4.73997,3.16522-6.65743,8.88285,2.22093.88991,3.54862-1.27289,6.16309-.78183-3.43402,2.35614-6.30392,4.58707-9.412,6.41241-13.50359,7.93052-17.45154,15.44461-16.67073,35.02163.07857,1.96993.1179,4.0034-.1689,5.95927-.39183,2.67214-2.12444,3.99017-4.8768,3.99191-3.38982.00213-5.00488-2.78929-5.1312-5.38249-.57224-11.7473-1.88586-22.18859,4.84218-32.96295,1.94708-3.11808.76369-.95103,7.37521-12.46246,3.1885-5.55155,4.80967-8.60595,8.21705-9.88767,1.18667-.44638,3.58347-1.05146,5.45925-1.44325,1.88266-.39322,2.02826-.31839,4.75229-.79152,3.95838-.68752,5.98106-1.05045,8.11239-1.99006,1.67295-.73753,2.93813-1.58328,3.75555-2.19261Z"/><path d="M66.46532,60.11003c-1.95795,2.92356-3.69848,5.71477-5.15411,8.66025q-1.0265,2.07713-4.85559,2.98491c-9.77995,2.31858-11.32976-.01811-17.13813,15.04541-.53158,1.3786-1.1376,2.80373-1.9986,4.00172-1.48492,2.06611-3.63263,2.16367-5.84421,1.35274-2.17757-.79846-2.21915-4.1612-1.59943-5.88433,4.0355-11.22074,3.02139-7.84793,7.53462-17.31675,1.07602-2.25751,2.36407-2.8821,3.62625-3.2647,14.80229-4.48691,19.27794-4.40751,25.42921-5.57925Z"/><path d="M85.18702,16.16586c3.69518-3.48707,7.0485-6.65153,10.64122-10.0419.26675-.25172.70429-.15695.85017.17956.99285,2.29018.47836,4.40923.52407,6.40172.17811,7.76505.91767,8.60438,8.46558,9.02721.67279.03769,1.3437.10886,2.15858.19876.8193.09039,1.22477,1.04645.71956,1.69776-1.8347,2.36529-3.47594,4.50268-4.82158,6.8528-2.27046,3.96528-1.29765,6.92155,1.98325,9.58206,2.49792,2.02559,4.98144,4.06892,7.77583,6.36135.82731.6787.61429,2.01459-.39202,2.37847-.30162.10907-.56725.18374-.83793.21578-8.47736,1.00333-13.31429,5.30391-13.25613,14.26693.0206,3.17472-1.59661,3.90001-3.99818,1.93952-2.49061-2.03318-4.79935-1.28796-7.59323-.08121-.46339.20015-.91682-.32061-.65077-.74958,1.65154-2.66285,3.38325-4.17308,6.63971-3.2857,1.36475.37189,2.36767-.052,2.41327-1.59237.19674-6.64734,2.44898-11.74118,9.46107-12.73808.28872-.04105.49067-.30769.4549-.59711-.17552-1.41988-1.08215-1.78771-1.76012-2.3014-6.68671-5.06644-7.43764-7.39248-4.2872-15.24405.89523-2.23109,1.45119-3.45661-1.69686-4.04145-3.15742-.58658-3.86252-3.52727-3.98364-6.21205-.14877-3.2975-1.0176-4.25724-4.06143-2.29981-1.16475.74902-2.52921,1.36102-4.49352.98775-.41704-.07925-.56333-.61359-.25459-.90495Z"/><path d="M113.96587,35.97326c7.28001.1391,10.47183,3.82478,10.82108,10.56735.30865,5.95901-3.736,10.90802-9.72651,11.96323-1.67814.2956-3.28488.12817-4.91011-.31801-2.04231-.56069-4.22256-1.87375-4.37492-3.59427-.17691-1.99767,2.5928-2.04002,4.19914-2.59391,2.74274-.94576,7.01709-.78911,7.58889-3.54189.59306-2.85509-2.67275-4.0997-5.58899-6.41589-.97631-.77543.27881.29285-.47603-.32035-1.4904-1.21074-3.33436-1.8551-2.3249-3.8422,1.14828-2.26036,3.04176-1.90439,4.79235-1.90406Z"/><path d="M103.6943,57.66824c.34228.22987.78324.463,1.14988.78165,6.00922,5.22274,12.01099,10.45404,18.00636,15.69268.37247.32546.96628.87411,1.31971,1.21772,1.2133,1.1796,3.7415,4.43353,1.22705,6.41726-2.31674,1.82776-4.42065.05951-6.18191-1.32018-5.09055-3.98775-9.93562-8.29117-15.06143-12.23077-3.35074-2.57531-3.18818-6.23558-2.08892-9.07802.30047-.77695.40364-1.62792,1.62926-1.48034Z"/><line class="c" x1="68.67361" y1="25.74653" x2="24.75626" y2="25.74653"/><line class="c" x1="61.18433" y1="38.72528" x2="8.06815" y2="38.72528"/><line class="c" x1="66.46532" y1="50.97439" x2="42.54254" y2="50.97439"/><circle class="b" cx="82.38292" cy="38.62431" r="4.79533"/><circle class="b" cx="82.38292" cy="38.62431" r="12.29277"/></svg>