<?xml version="1.0" encoding="UTF-8"?><svg id="a" xmlns="http://www.w3.org/2000/svg" viewBox="0 0 128 128"><defs><style>.c{fill:none;stroke:#000;stroke-linecap:round;stroke-miterlimit:10;stroke-width:2px;}.d{fill-rule:evenodd;}</style></defs><g id="b"><path class="d" d="M61,110.88l-3.88-3.88h-8.12v10.94l1.06,1.06h10.94v-8.12ZM58.27,109.09l-8.48,8.48.64.64,8.48-8.48-.64-.64Z"/><path class="d" d="M57.12,101l3.88-3.88v-8.12h-10.94l-1.06,1.06v10.94h8.12ZM58.91,98.27l-8.48-8.48-.64.64,8.48,8.48.64-.64Z"/><path class="d" d="M67,110.88l3.88-3.88h8.12v10.94l-1.06,1.06h-10.94v-8.12ZM69.73,109.09l8.48,8.48-.64.64-8.48-8.48.64-.64Z"/><path class="d" d="M70.88,101l-3.88-3.88v-8.12h10.94l1.06,1.06v10.94h-8.12ZM69.09,98.27l8.48-8.48.64.64-8.48,8.48-.64-.64Z"/><path class="d" d="M66.62,92.05v5.08l4.26,4.26h5.12v5.25h-5.12l-4.26,4.26v5.15h-5.25v-5.15l-4.26-4.26h-5.12v-5.25h5.12l4.26-4.26v-5.08h5.25ZM64,98.78c2.9,0,5.25,2.35,5.25,5.25s-2.35,5.25-5.25,5.25-5.25-2.35-5.25-5.25,2.35-5.25,5.25-5.25Z"/><circle cx="64" cy="104.05" r="3.75"/></g><polyline class="d" points="60.78 50.27 60.78 45.04 67 45.04 67 50.27 72.29 50.27 63.89 64.22 55.49 50.27"/><line class="c" x1="51.97" y1="65.38" x2="51.97" y2="83.81"/><line class="c" x1="63.97" y1="73.26" x2="63.97" y2="82.53"/><line class="c" x1="75.97" y1="65.38" x2="75.97" y2="83.81"/><rect x="39.34" y="36.09" width="47.9" height="3.18"/><rect x="83.22" y="7.71" width="3.09" height="29.97"/><rect x="69.22" y="7.71" width="3.09" height="29.97"/><rect x="40.22" y="7.71" width="3.09" height="29.97"/></svg>