<?xml version="1.0" encoding="UTF-8"?><svg id="a" xmlns="http://www.w3.org/2000/svg" viewBox="0 0 128 128"><defs><style>.c{fill:none;stroke:#000;stroke-linecap:round;stroke-miterlimit:10;stroke-width:2px;}.d{fill-rule:evenodd;}</style></defs><g id="b"><path class="d" d="M60.99997,110.88463l-3.88461-3.88463h-8.11536v10.94231l1.05768,1.05769h10.94228v-8.11537ZM58.26548,109.09438l-8.48435,8.48438.64012.64013,8.48435-8.48438-.64012-.64013Z"/><path class="d" d="M57.11535,101l3.88462-3.88462v-8.11538h-10.94228l-1.05768,1.05769v10.94231h8.11535ZM58.9056,98.2655l-8.48435-8.48437-.64012.64012,8.48435,8.48438.64012-.64013Z"/><path class="d" d="M66.99996,110.88463l3.88461-3.88463h8.11536v10.94231l-1.05768,1.05769h-10.94228v-8.11537ZM69.73445,109.09438l8.48435,8.48438-.64012.64013-8.48435-8.48438.64012-.64013Z"/><path class="d" d="M70.88465,101l-3.88462-3.88462v-8.11538h10.94228l1.05768,1.05769v10.94231h-8.11535ZM69.0944,98.2655l8.48435-8.48437.64012.64012-8.48435,8.48438-.64012-.64013Z"/><path class="d" d="M66.62496,92.048v5.08331l4.25962,4.25963h5.11536v5.25h-5.11536l-4.25962,4.25962v5.14744h-5.24999v-5.14744l-4.25961-4.25962h-5.11536v-5.25h5.11536l4.25961-4.25963v-5.08331h5.24999ZM63.99996,98.78206c2.89762,0,5.24999,2.35237,5.24999,5.25,0,2.89744-2.35237,5.25-5.24999,5.25-2.89743,0-5.24999-2.35256-5.24999-5.25,0-2.89763,2.35256-5.25,5.24999-5.25Z"/><circle cx="64.0001" cy="104.04813" r="3.75002"/></g><polyline class="d" points="60.78246 50.27066 60.78246 45.04042 66.99813 45.04042 66.99813 50.27066 72.29064 50.27066 63.8903 64.21796 55.48996 50.27066"/><line class="c" x1="51.97154" y1="65.37826" x2="51.97154" y2="83.80544"/><line class="c" x1="63.97154" y1="73.26045" x2="63.97154" y2="82.52616"/><line class="c" x1="75.97154" y1="65.37826" x2="75.97154" y2="83.80544"/><rect x="39.33516" y="36.09166" width="47.90447" height="3.18312"/><rect x="83.2167" y="7.71306" width="3.09217" height="29.97016"/><rect x="69.2167" y="7.71306" width="3.09217" height="29.97016"/><rect x="40.2167" y="7.71306" width="3.09217" height="29.97016"/></svg>