<?xml version="1.0" encoding="UTF-8"?><svg id="a" xmlns="http://www.w3.org/2000/svg" viewBox="0 0 128 128"><defs><style>.c{fill:none;stroke:#000;stroke-linecap:round;stroke-miterlimit:10;stroke-width:2px;}.d{fill-rule:evenodd;}</style></defs><g id="b"><path class="d" d="M61,110.885l-3.885-3.885h-8.115v10.942l1.058,1.058h10.942v-8.115h0ZM58.265,109.094l-8.484,8.484.64.64,8.484-8.484-.64-.64Z"/><path class="d" d="M57.115,101l3.885-3.885v-8.115h-10.942l-1.058,1.058v10.942h8.115,0ZM58.906,98.266l-8.484-8.484-.64.64,8.484,8.484s.64-.64.64-.64Z"/><path class="d" d="M67,110.885l3.885-3.885h8.115v10.942l-1.058,1.058h-10.942v-8.115h0ZM69.734,109.094l8.484,8.484-.64.64-8.484-8.484.64-.64Z"/><path class="d" d="M70.885,101l-3.885-3.885v-8.115h10.942l1.058,1.058v10.942h-8.115,0ZM69.094,98.266l8.484-8.484.64.64-8.484,8.484s-.64-.64-.64-.64Z"/><path class="d" d="M66.625,92.048v5.083l4.26,4.26h5.115v5.25h-5.115l-4.26,4.26v5.147h-5.25v-5.147l-4.26-4.26h-5.115v-5.25h5.115l4.26-4.26v-5.083h5.25ZM64,98.782c2.898,0,5.25,2.352,5.25,5.25s-2.352,5.25-5.25,5.25-5.25-2.353-5.25-5.25,2.353-5.25,5.25-5.25Z"/><circle cx="64" cy="104.048" r="3.75"/></g><polyline class="d" points="60.782 50.271 60.782 45.04 66.998 45.04 66.998 50.271 72.291 50.271 63.89 64.218 55.49 50.271"/><line class="c" x1="51.972" y1="65.378" x2="51.972" y2="83.805"/><line class="c" x1="63.972" y1="73.26" x2="63.972" y2="82.526"/><line class="c" x1="75.972" y1="65.378" x2="75.972" y2="83.805"/><rect x="39.335" y="36.092" width="47.904" height="3.183"/><rect x="83.217" y="7.713" width="3.092" height="29.97"/><rect x="69.217" y="7.713" width="3.092" height="29.97"/><rect x="40.217" y="7.713" width="3.092" height="29.97"/></svg>