<?xml version="1.0" encoding="UTF-8"?><svg id="a" xmlns="http://www.w3.org/2000/svg" viewBox="0 0 45.8 112.4"><defs><style>.b,.c{fill-rule:evenodd;}.c,.d{fill:none;stroke:#000;stroke-miterlimit:10;stroke-width:3px;}</style></defs><path class="b" d="M19.9,103.7l-4.2-4.2H7v11.7l1.1,1.1h11.7v-8.7ZM16.9,101.8l-9.1,9.1.7.7,9.1-9.1-.7-.7Z"/><path class="b" d="M15.7,93.1l4.2-4.2v-8.7h-11.7l-1.1,1.1v11.7h8.7ZM17.6,90.2l-9.1-9.1-.7.7,9.1,9.1.7-.7Z"/><path class="b" d="M26.3,103.7l4.2-4.2h8.7v11.7l-1.1,1.1h-11.7v-8.7ZM29.2,101.8l9.1,9.1-.7.7-9.1-9.1.7-.7Z"/><path class="b" d="M30.5,93.1l-4.2-4.2v-8.7h11.7l1.1,1.1v11.7h-8.7ZM28.5,90.2l9.1-9.1.7.7-9.1,9.1-.7-.7Z"/><path class="b" d="M25.9,83.5v5.5l4.6,4.6h5.5v5.6h-5.5l-4.6,4.6v5.5h-5.6v-5.5l-4.6-4.6h-5.5v-5.6h5.5l4.6-4.6v-5.5h5.6ZM23.1,90.7c3.1,0,5.6,2.5,5.6,5.6s-2.5,5.6-5.6,5.6-5.6-2.5-5.6-5.6,2.5-5.6,5.6-5.6Z"/><circle cx="23.1" cy="96.4" r="4"/><rect x="10.8" y="56.9" width="1.9" height="19.6"/><rect x="33.8" y="56.9" width="1.9" height="19.6"/><rect x="22.8" y="65.2" width="1.9" height="11.2"/><polyline class="b" points="20.1 43.3 20.1 38.3 26 38.3 26 43.3 31.1 43.3 23.1 56.6 15.1 43.3"/><polyline class="c" points="1.5 0 1.5 30 44.3 30 44.3 0"/><line class="d" x1="30.5" x2="30.5" y2="30"/></svg>