<?xml version="1.0" encoding="UTF-8"?><svg id="a" xmlns="http://www.w3.org/2000/svg" viewBox="0 0 128 128"><defs><style>.c{fill-rule:evenodd;}</style></defs><path d="M91.73,85.31c-5.84-6.52-11.68-13.05-17.52-19.57-2.57-2.3-5.62-4.76-9.16-7.2-3.67-2.52-7.18-4.54-10.34-6.15-.49-.28-1.86-.99-3.6-.72-.74.12-1.33.37-1.74.6-4.7,3.29-9.39,6.59-14.09,9.88-1.25,1.48-1.56,3.44-.8,4.83,1.06,1.92,4.18,2.72,6.68.98,3.09-2.2,6.18-4.4,9.28-6.6.85-.61,1.99-.62,2.86-.05l2.38,1.58c.9.6,1.11,1.84.45,2.7l-13.71,17.81c-.57.74-1.05,1.54-1.45,2.38l-5.62,12.07c-.79,1.69-1.97,3.16-3.45,4.28l-10.77,7.65c-2.27,1.42-2.64,4.9-1.16,6.81,1.36,1.75,4.09,2.16,6.06.69l13.87-9.24c1.26-.84,2.31-1.97,3.06-3.29l7.95-14.02c.06-.11.77-1.4,2.25-1.57,1.39-.15,1.68.57,3.18,2.28,1.58,1.81,2.92,3.36,4.5,5.16,1.77,2.02,2.92,2.81,2.84,4.77l-1.18,13.26c-.02.42-.75,3.61,1.67,5.78.32.28,1.5.85,2.54.89,1.69.07,3.6-1.98,4.25-5.17.67-5.86,1.35-11.73,2.02-17.59.21-1.84-.37-3.69-1.59-5.08l-7.84-8.89c-.69-.78-.63-1.97.12-2.69l5.98-5.64c.95-.9,2.44-.88,3.36.04l13.99,13.85c1.34,1.41,3.3,1.74,4.5,1,1.54-.94,2.07-3.78.25-5.82Z"/><path d="M72.44,56.92c1.22-1.5,2.7-3.31,3.95-4.85,1.07-1.33,1.09-1.39,2.7-1.38,1.92-.02,4.1-.03,5.98-.05.72,0,1.21,0,1.43-.12.46-.4-.41-1.77-.57-2.53-.46-1.29-.97-2.71-1.43-4.01-.55-1.5-.64-1.72.33-2.81.82-.95,1.8-2.06,2.61-2.99.56-.69.97-1.03.68-1.79-.38-1.14-2.36-3.28-2.36-4.61.34-1.02,1.58-1.83,2.25-2.63.31-.34.57-.59.23-.5-.8.34-4.05,1.8-5.4,2.55-.54.39-.29.71.17,1.38.53.73,1.44,1.89,1.95,2.62.36.5.58.95.22,1.46-.66.91-3.11,3.47-3.92,4.49-.49.56-.37,1.13-.06,1.8.43.98,1.17,2.55,1.59,3.51.25.56.38.93.26,1.12-.65.48-2.16.2-3.07.31-1.68.09-3.19-.29-4.17,1.27-1,1.19-2.13,2.55-3.11,3.71-.5.51-.64.93-1.16.83-1.08-.75-3.55-3.93-4.66-4.96-.22-.2-.43-.35-.72-.36-1.66.23-3.88,1.88-5.47,2.06-.62-.3-.34-1.53-.43-2.27-.04-1.19.2-2.56-1.4-2.31-1.75.14-5.19.14-5.81.38l.02.03c.86.43,2.55.84,3.52,1.24.56.22.94.49,1.06,1.07.21,1.05.32,3.98.51,4.98.05.22.11.4.31.47,1.45-.18,3.42-1.43,4.91-1.96,1.35-.61,1.49-.45,2.58.64.99.97,2.04,2.01,3.03,2.99.79.71,1.68,1.85,2.39,2.16.29.05.56-.3,1.07-.92Z"/><path d="M86.18,43.55c-.87-.5.36,1.98,1.53,4.52.34.73.69,1.77.78,2.45s-.38,1.26-1.03,1.37-3.84.12-5.11.14c-4.04.09-3.7.11-4.39,1.06-1.23,1.69-2.38,3.15-4.14,5.43-.56.73-.83,1.05-.98,1.24-.39.49-.34,1.2.13,1.61.9.8,2.3,1.8,4.21,2.3.15.04,1.36.32,2.65.32,6.19,0,11.21-5.02,11.21-11.21,0-3.83-1.93-7.21-4.86-9.24Z"/><g id="b"><path class="c" d="M69.48,32.37l-5.65,3.01-2.76,9.04,12.19,3.73,1.54-.82,3.73-12.19-9.04-2.76ZM66.55,34.81l6.56,12.34.93-.5-6.56-12.34-.93.5Z"/><path class="c" d="M57.14,33.34l-3.01-5.65-9.04-2.76-3.73,12.19.82,1.54,12.19,3.73,2.76-9.04ZM54.7,30.41l-12.34,6.56.5.93,12.34-6.56-.5-.93Z"/><path class="c" d="M71.52,25.69l-3.01-5.65,2.76-9.04,12.19,3.73.82,1.54-3.73,12.19-9.04-2.76ZM70.46,22.03l12.34-6.56.5.93-12.34,6.56-.5-.93Z"/><path class="c" d="M61.83,17.99l-5.65,3.01-9.04-2.76,3.73-12.19,1.54-.82,12.19,3.73-2.76,9.04ZM58.17,19.06l-6.56-12.34.93-.5,6.56,12.34-.93.5Z"/><path class="c" d="M50.4,19.69l5.66,1.73,6.2-3.3,1.74-5.7,5.85,1.79-1.74,5.7,3.3,6.2,5.74,1.75-1.79,5.85-5.74-1.75-6.2,3.3-1.74,5.7-5.85-1.79,1.74-5.7-3.3-6.2-5.66-1.73,1.79-5.85ZM57.01,24.91c.99-3.23,4.41-5.05,7.64-4.06s5.05,4.41,4.06,7.64-4.41,5.05-7.64,4.06-5.05-4.41-4.06-7.64Z"/><circle cx="62.88" cy="26.7" r="4.37"/></g></svg>