<?xml version="1.0" encoding="UTF-8"?><svg id="a" xmlns="http://www.w3.org/2000/svg" viewBox="0 0 128 128"><defs><style>.c{fill-rule:evenodd;}</style></defs><path d="M91.729,85.308c-5.841-6.524-11.683-13.048-17.524-19.572-2.575-2.301-5.62-4.762-9.164-7.199-3.67-2.523-7.176-4.54-10.34-6.152-.487-.283-1.861-.991-3.599-.72-.74.116-1.328.375-1.737.604-4.696,3.295-9.392,6.59-14.088,9.885-1.249,1.48-1.559,3.443-.797,4.826,1.058,1.919,4.18,2.717,6.675.982,3.092-2.201,6.184-4.401,9.276-6.602.85-.605,1.986-.624,2.856-.048l2.383,1.58c.905.6,1.111,1.841.449,2.701l-13.706,17.808c-.569.739-1.054,1.538-1.448,2.383l-5.625,12.066c-.786,1.687-1.972,3.156-3.454,4.282l-10.774,7.646c-2.267,1.415-2.643,4.903-1.161,6.808,1.364,1.753,4.094,2.155,6.059.695l13.867-9.245c1.262-.841,2.309-1.966,3.057-3.285l7.951-14.019c.06-.113.771-1.403,2.246-1.566,1.393-.154,1.677.566,3.18,2.276,1.575,1.808,2.923,3.355,4.498,5.163,1.767,2.022,2.918,2.813,2.836,4.766l-1.181,13.257c-.016.423-.752,3.605,1.672,5.781.317.284,1.503.849,2.541.89,1.695.068,3.599-1.982,4.254-5.17.674-5.863,1.349-11.726,2.023-17.589.212-1.843-.367-3.689-1.594-5.08l-7.836-8.892c-.69-.782-.635-1.971.124-2.686l5.978-5.642c.949-.895,2.436-.878,3.363.04l13.995,13.849c1.345,1.411,3.297,1.738,4.497,1.002,1.537-.944,2.065-3.777.249-5.82h0Z"/><path d="M72.441,56.915c1.22-1.499,2.696-3.306,3.949-4.845,1.073-1.334,1.091-1.391,2.698-1.384,1.916-.015,4.097-.035,5.982-.05.724-.009,1.212,0,1.425-.116.464-.401-.409-1.769-.574-2.532-.462-1.292-.968-2.711-1.431-4.007-.549-1.501-.643-1.72.33-2.807.822-.95,1.802-2.065,2.608-2.994.564-.688.968-1.035.678-1.787-.38-1.139-2.356-3.276-2.361-4.609.339-1.024,1.584-1.833,2.247-2.626.309-.343.574-.587.233-.503-.796.344-4.048,1.8-5.402,2.548-.537.39-.288.705.169,1.382.529.732,1.44,1.892,1.953,2.621.358.504.577.951.216,1.463-.662.912-3.11,3.472-3.915,4.487-.488.558-.37,1.133-.058,1.797.432.983,1.169,2.553,1.593,3.505.248.563.382.93.257,1.122-.655.477-2.164.196-3.071.308-1.683.086-3.191-.285-4.169,1.268-.998,1.189-2.133,2.546-3.111,3.71-.496.513-.645.929-1.162.83-1.084-.746-3.548-3.927-4.662-4.962-.219-.2-.429-.353-.716-.36-1.662.229-3.881,1.876-5.473,2.058-.619-.302-.336-1.526-.426-2.274-.041-1.19.204-2.56-1.395-2.31-1.746.139-5.189.144-5.814.379l.016.027c.858.431,2.549.837,3.519,1.238.564.222.938.491,1.058,1.072.211,1.049.321,3.981.511,4.977.048.22.112.399.307.47,1.448-.178,3.421-1.429,4.914-1.962,1.345-.61,1.487-.448,2.576.644.987.973,2.039,2.01,3.032,2.989.793.711,1.676,1.852,2.393,2.157.289.049.556-.295,1.073-.922h0Z"/><path d="M86.176,43.549c-.866-.496.358,1.983,1.533,4.525.339.734.688,1.766.775,2.452.084.661-.377,1.263-1.035,1.37-.663.107-3.836.115-5.11.143-4.044.089-3.697.11-4.387,1.061-1.227,1.689-2.383,3.152-4.144,5.427-.561.725-.826,1.052-.98,1.243-.393.488-.341,1.195.126,1.614.897.805,2.298,1.796,4.211,2.298.145.038,1.362.318,2.655.318,6.194,0,11.215-5.021,11.215-11.215,0-3.833-1.926-7.214-4.86-9.236Z"/><g id="b"><path class="c" d="M69.477,32.374l-5.652,3.005-2.765,9.042,12.192,3.728,1.539-.818,3.728-12.192s-9.042-2.765-9.042-2.765ZM66.55,34.811l6.563,12.344.931-.495-6.563-12.344s-.931.495-.931.495Z"/><path class="c" d="M57.14,33.335l-3.005-5.652-9.042-2.765-3.728,12.192.818,1.539,12.192,3.728s2.765-9.042,2.765-9.042ZM54.702,30.409l-12.344,6.563.495.931,12.344-6.563-.495-.931Z"/><path class="c" d="M71.521,25.689l-3.005-5.652,2.765-9.042,12.192,3.728.818,1.539-3.728,12.192-9.042-2.765h0ZM70.457,22.032l12.344-6.563.495.931-12.344,6.563s-.495-.931-.495-.931Z"/><path class="c" d="M61.83,17.993l-5.652,3.005-9.042-2.765,3.728-12.192,1.539-.818,12.192,3.728s-2.765,9.042-2.765,9.042ZM58.173,19.056l-6.563-12.344.931-.495,6.563,12.344-.931.495h0Z"/><path class="c" d="M50.404,19.69l5.664,1.732,6.197-3.295,1.743-5.7,5.85,1.788-1.743,5.7,3.295,6.197,5.735,1.754-1.788,5.85-5.735-1.754-6.197,3.295-1.743,5.7-5.85-1.788,1.743-5.7-3.295-6.197-5.664-1.732,1.788-5.85h0ZM57.014,24.909c.987-3.229,4.41-5.048,7.638-4.061,3.228.987,5.048,4.41,4.061,7.638-.987,3.228-4.41,5.048-7.638,4.061-3.229-.987-5.048-4.41-4.061-7.638Z"/><circle cx="62.881" cy="26.703" r="4.369"/></g></svg>