<?xml version="1.0" encoding="UTF-8"?><svg id="a" xmlns="http://www.w3.org/2000/svg" viewBox="0 0 128 128"><defs><style>.c{fill-rule:evenodd;}</style></defs><path d="M91.72858,85.30768c-5.84131-6.52405-11.68262-13.04803-17.52386-19.57208-2.57465-2.30145-5.6203-4.76245-9.16388-7.19879-3.66986-2.52319-7.17603-4.54022-10.33997-6.15167-.48724-.28284-1.86139-.99139-3.59937-.71985-.73981.1156-1.3277.37476-1.73724.60352-4.69598,3.29486-9.39197,6.58966-14.08789,9.88452-1.24939,1.47974-1.55945,3.44293-.79736,4.82562,1.05792,1.91937,4.17993,2.71667,6.67517.98163,3.09186-2.20068,6.18372-4.40131,9.27557-6.60193.85034-.60522,1.9856-.62415,2.85559-.04755l2.3833,1.57959c.90466.59955,1.11102,1.84052.4491,2.70062l-13.70563,17.80817c-.56873.73901-1.05444,1.53833-1.44849,2.38348l-5.62457,12.06573c-.78632,1.68671-1.97186,3.15637-3.45404,4.28174l-10.77351,7.64601c-2.26678,1.41504-2.64263,4.90264-1.16082,6.80816,1.36359,1.75348,4.09351,2.15533,6.05896.69464l13.86713-9.24475c1.26166-.84113,2.30853-1.96631,3.05658-3.28522l7.95117-14.01923c.05975-.11285.77075-1.40271,2.24567-1.56598,1.39325-.15424,1.67712.56628,3.18048,2.27582,1.57507,1.8078,2.92334,3.35522,4.49841,5.16302,1.76715,2.02155,2.91827,2.81305,2.83551,4.76581l-1.18084,13.25728c-.01611.42297-.75161,3.60524,1.67203,5.78052.31667.28422,1.5027.84855,2.5411.89,1.69458.06763,3.59869-1.98187,4.25378-5.16998.67432-5.86304,1.34869-11.72607,2.02301-17.58905.21198-1.84271-.36713-3.6889-1.59357-5.08044l-7.83649-8.8916c-.68958-.78241-.63495-1.97058.12354-2.68646l5.97821-5.6424c.94867-.89539,2.43616-.87775,3.36334.03979l13.99451,13.84937c1.3446,1.41125,3.29742,1.73822,4.49652,1.00159,1.5368-.94415,2.065-3.77673.24884-5.81964Z"/><path d="M72.44135,56.91541c1.22021-1.49908,2.6955-3.30554,3.94904-4.84528,1.0733-1.33392,1.09064-1.39136,2.69849-1.38409,1.9162-.0155,4.09662-.03479,5.98212-.05005.72406-.00897,1.2124.00049,1.42517-.11597.46436-.40118-.409-1.76947-.57446-2.53156-.46216-1.29224-.96783-2.711-1.43103-4.0069-.54901-1.50085-.64282-1.72015.33038-2.80695.82214-.94958,1.80164-2.06458,2.6084-2.99408.5639-.68793.96802-1.03479.67847-1.78656-.37982-1.13934-2.35565-3.27551-2.3609-4.60895.3385-1.02386,1.58392-1.83252,2.24683-2.62622.30945-.34344.57446-.58679.2334-.50342-.79633.34393-4.04791,1.79962-5.40216,2.54761-.53748.39026-.28815.7052.16949,1.38153.52936.73187,1.43951,1.89203,1.95276,2.62079.3576.50421.5766.95062.21619,1.46277-.66174.91248-3.10992,3.47198-3.91504,4.48743-.48792.55811-.36963,1.13312-.05768,1.79675.43195.98328,1.1687,2.55334,1.59265,3.50525.24817.56323.3819.92975.25745,1.12225-.6546.47687-2.16351.19617-3.07068.30841-1.68347.0863-3.19135-.28528-4.16888,1.26831-.99841,1.18884-2.13257,2.54565-3.1109,3.71027-.49567.51251-.64459.9292-1.16223.82971-1.08368-.74634-3.54846-3.92737-4.66217-4.9621-.21948-.19977-.42859-.35284-.71558-.36005-1.66248.22943-3.88086,1.87622-5.4726,2.05756-.61896-.30219-.33612-1.52643-.42572-2.27374-.04065-1.19043.20392-2.55975-1.3952-2.31042-1.74554.13885-5.18927.14398-5.81396.37891l.01556.02673c.85822.43115,2.54871.83704,3.51886,1.23773.56354.22186.93756.49139,1.05798,1.07208.21149,1.04852.32086,3.98102.51141,4.9765.04791.2204.11206.39935.30682.47034,1.44824-.1778,3.42126-1.42926,4.91357-1.96173,1.34528-.60999,1.48694-.44836,2.57599.6438.98657.97302,2.03912,2.0097,3.03198,2.98877.79266.71051,1.67615,1.85211,2.39288,2.15698.2887.04865.5564-.29523,1.0733-.92242Z"/><path d="M86.17627,43.54895c-.86561-.49591.35774,1.98257,1.53342,4.5246.33945.73394.68791,1.76606.77526,2.45205.08416.66101-.37693,1.26318-1.0347,1.36975-.66349.10749-3.83583.11547-5.1097.14346-4.04368.08884-3.69681.1097-4.38739,1.06077-1.2266,1.68928-2.38289,3.15178-4.14358,5.42727-.56137.7255-.82606,1.05227-.97967,1.24296-.39342.48837-.34078,1.19503.12594,1.6139.8967.80477,2.29805,1.79579,4.21149,2.29784.14543.03816,1.36175.31846,2.65456.31846,6.19366,0,11.2146-5.021,11.2146-11.21466,0-3.83331-1.92603-7.21381-4.86023-9.23639Z"/><g id="b"><path class="c" d="M69.47668,32.37436l-5.65172,3.00506-2.76455,9.04245,12.19235,3.72758,1.53882-.81821,3.72757-12.19232-9.04247-2.76456ZM66.55039,34.81138l6.56337,12.34386.93131-.49519-6.56337-12.34386-.93132.49519Z"/><path class="c" d="M57.13952,33.33548l-3.00508-5.65172-9.04247-2.76456-3.72757,12.19232.81821,1.53882,12.19235,3.72758,2.76455-9.04244ZM54.70249,30.40919l-12.34388,6.56334.49519.93131,12.34388-6.56334-.49519-.93131Z"/><path class="c" d="M71.52062,25.68894l-3.00508-5.65171,2.76455-9.04245,12.19235,3.72758.81821,1.53882-3.72757,12.19232-9.04247-2.76456ZM70.45738,22.0322l12.34388-6.56334.49519.93131-12.34388,6.56334-.49519-.93131Z"/><path class="c" d="M61.83013,17.99319l-5.65172,3.00507-9.04247-2.76456,3.72757-12.19232,1.53882-.8182,12.19235,3.72758-2.76455,9.04244ZM58.17338,19.05643l-6.56337-12.34386.93131-.49519,6.56337,12.34386-.93132.49519Z"/><path class="c" d="M50.40437,19.68995l5.66403,1.73167,6.19731-3.29516,1.74259-5.69974,5.84976,1.78845-1.74259,5.69974,3.29517,6.1973,5.73548,1.75351-1.78845,5.84974-5.73548-1.75351-6.19731,3.29516-1.74259,5.69974-5.84976-1.78845,1.74259-5.69974-3.29518-6.1973-5.66403-1.73167,1.78845-5.84974ZM57.0135,24.90882c.98709-3.22864,4.40955-5.04839,7.6382-4.06129,3.22844.98703,5.04841,4.40955,4.06131,7.63819-.98703,3.22843-4.40976,5.04832-7.6382,4.06129-3.22865-.9871-5.04834-4.40976-4.06131-7.63819Z"/><circle cx="62.88121" cy="26.7026" r="4.36934"/></g></svg>