<?xml version="1.0" encoding="UTF-8"?><svg id="a" xmlns="http://www.w3.org/2000/svg" viewBox="0 0 128 128"><defs><style>.b{stroke-linecap:round;stroke-width:3px;}.b,.c{fill:none;stroke:#000;stroke-miterlimit:10;}.c{stroke-width:2.88161px;}</style></defs><circle class="c" cx="63.97899" cy="50.72715" r="3.94808"/><circle class="c" cx="63.97899" cy="50.72715" r="10.12086"/><line class="b" x1="53.85813" y1="16.33603" x2="53.85813" y2="35.52289"/><line class="b" x1="73.53725" y1="20.06779" x2="73.53725" y2="37.45939"/><line class="b" x1="63.51737" y1="8.22914" x2="63.51737" y2="31.94829"/><polygon points="62.49804 66.73792 62.49804 72.30163 58.19278 72.30163 65.14743 82.89919 72.10208 72.30163 67.79682 72.30163 67.79682 66.73792 62.49804 66.73792"/><path d="M95.27026,116.25891v-7.46814h-8.98975l8.6554-9.98322-15.23242-6.86041,8.54645,7.26733-11.78253,9.57629h-24.63995l-11.78253-9.57629,8.54645-7.26733-15.23242,6.86041,8.6554,9.98322h-8.98975v7.46814l-2.20337,3.38177,5.45422-3.38177h55.74396l5.45422,3.38177-2.20337-3.38177ZM41.64325,114.48798h-3.70728c-1.17126.10669-2.14771-.84296-2.11841-1.90662.02826-1.02765.98834-1.90601,2.11841-1.80066h3.70728c1.1684-.12872,2.16357.80347,2.15381,1.87128-.0097,1.05573-.99908,1.96399-2.15381,1.836ZM65.9837,114.48798h-3.70728c-1.17126.10669-2.14771-.84296-2.11847-1.90662.02832-1.02765.98834-1.90601,2.11847-1.80066h3.70728c1.1684-.12872,2.16351.80347,2.15375,1.87128-.00964,1.05573-.99908,1.96399-2.15375,1.836ZM89.55573,114.48798h-3.70728c-1.17133.10669-2.14777-.84296-2.11847-1.90662.02826-1.02765.98834-1.90601,2.11847-1.80066h3.70728c1.1684-.12872,2.16351.80347,2.15375,1.87128-.0097,1.05573-.99908,1.96399-2.15375,1.836Z"/><polygon points="65.6828 109.22438 65.6828 88.89802 75.59264 83.67414 69.63515 89.96452 69.63515 109.47532 65.6828 109.22438"/><rect x="58.57" y="93.66593" width="3.91328" height="15.49571"/></svg>