<?xml version="1.0" encoding="UTF-8"?><svg id="a" xmlns="http://www.w3.org/2000/svg" viewBox="0 0 128 128"><defs><style>.c{stroke-linecap:round;stroke-width:3px;}.c,.d{fill:none;stroke:#000;stroke-miterlimit:10;}.d{stroke-width:2.88161px;}</style></defs><circle class="d" cx="64" cy="50.72715" r="3.94808"/><circle class="d" cx="64" cy="50.72715" r="10.12086"/><line class="c" x1="53.87914" y1="16.33603" x2="53.87914" y2="35.52289"/><line class="c" x1="73.55826" y1="20.06779" x2="73.55826" y2="37.45939"/><line class="c" x1="63.53838" y1="8.22914" x2="63.53838" y2="31.94829"/><polygon points="61.35061 66.73792 61.35061 72.30163 57.04535 72.30163 64 82.89919 70.95465 72.30163 66.64939 72.30163 66.64939 66.73792 61.35061 66.73792"/><path id="b" d="M32,119l8-4v-1l-8-9,1-1,9,9h2l4-1v-7h-16v-1.97775l18-.02225-3-10,2-1,4,12h3v8h4v-5s3,0,3,0v-8h2s0,8,0,8h3v5s4,0,4,0v-8h3s4-12,4-12l2,1-3,10,18,.02225v1.97775l-16,.00842v7.07773s4,.91385,4,.91385h2s9-9,9-9l1,1.00842-8,8.99158v1s8,4,8,4v1s-64,0-64,0v-1ZM67.99003,116.05836c.00977-1.06781-.98535-2-2.15375-1.87128h-3.70728c-1.13013-.10535-2.09015.77301-2.11847,1.80066-.02924,1.06366.9472,2.01331,2.11847,1.90662h3.70728c1.15466.12799,2.1441-.78027,2.15375-1.836Z"/></svg>