<?xml version="1.0" encoding="UTF-8"?><svg id="a" xmlns="http://www.w3.org/2000/svg" viewBox="0 0 128 128"><defs><style>.c{stroke-linecap:round;stroke-width:3px;}.c,.d{fill:none;stroke:#000;stroke-miterlimit:10;}.d{stroke-width:2.88px;}</style></defs><circle class="d" cx="64" cy="50.73" r="3.95"/><circle class="d" cx="64" cy="50.73" r="10.12"/><line class="c" x1="53.88" y1="16.34" x2="53.88" y2="35.52"/><line class="c" x1="73.56" y1="20.07" x2="73.56" y2="37.46"/><line class="c" x1="63.54" y1="8.23" x2="63.54" y2="31.95"/><polygon points="61.35 66.74 61.35 72.3 57.05 72.3 64 82.9 70.95 72.3 66.65 72.3 66.65 66.74 61.35 66.74"/><path id="b" d="M32,119l8-4v-1l-8-9,1-1,9,9h2l4-1v-7h-16v-1.98l18-.02-3-10,2-1,4,12h3v8h4v-5s3,0,3,0v-8h2s0,8,0,8h3v5s4,0,4,0v-8h3s4-12,4-12l2,1-3,10,18,.02v1.98h-16v7.09s4,.91,4,.91h2s9-9,9-9l1,1.01-8,8.99v1s8,4,8,4v1s-64,0-64,0v-1ZM67.99,116.06c0-1.07-.99-2-2.15-1.87h-3.71c-1.13-.11-2.09.77-2.12,1.8-.03,1.06.95,2.01,2.12,1.91h3.71c1.15.13,2.14-.78,2.15-1.84Z"/></svg>