<?xml version="1.0" encoding="UTF-8"?><svg id="a" xmlns="http://www.w3.org/2000/svg" viewBox="0 0 128 128"><defs><style>.c{stroke-linecap:round;stroke-width:3px;}.c,.d{fill:none;stroke:#000;stroke-miterlimit:10;}.d{stroke-width:2.882px;}</style></defs><circle class="d" cx="64" cy="50.727" r="3.948"/><circle class="d" cx="64" cy="50.727" r="10.121"/><line class="c" x1="53.879" y1="16.336" x2="53.879" y2="35.523"/><line class="c" x1="73.558" y1="20.068" x2="73.558" y2="37.459"/><line class="c" x1="63.538" y1="8.229" x2="63.538" y2="31.948"/><polygon points="61.351 66.738 61.351 72.302 57.045 72.302 64 82.899 70.955 72.302 66.649 72.302 66.649 66.738 61.351 66.738"/><path id="b" d="M32,119l8-4v-1l-8-9,1-1,9,9h2l4-1v-7h-16v-1.978l18-.022-3-10,2-1,4,12h3v8h4v-5h3v-8h2v8h3v5h4v-8h3l4-12,2,1-3,10,18,.022v1.978l-16,.008v7.078l4,.914h2l9-9,1,1.008-8,8.992v1l8,4v1H32v-1ZM67.99,116.058c.01-1.068-.985-2-2.154-1.871h-3.707c-1.13-.105-2.09.773-2.118,1.801-.029,1.064.947,2.013,2.118,1.907h3.707c1.155.128,2.144-.78,2.154-1.836Z"/></svg>