<?xml version="1.0" encoding="UTF-8"?><svg id="a" xmlns="http://www.w3.org/2000/svg" viewBox="0 0 128 128"><path d="M20.16,7.94h88.57v111.83h-5.77v-49.59c-6.11.04-6.91.06-12.85.07-3.63.01-6.02-1.11-7.95-3.94-1.4-2.06-2.96-4.01-4.96-6.69-2.19,4.87-4.42,9.2-6.02,13.74-.49,1.4.46,3.54,1.22,5.12,4.6,9.6,9.37,19.11,14,28.7.93,1.92,1.84,3.97,2.16,6.05.38,2.52-.05,5-3.01,6.15-2.98,1.16-5.34.33-6.86-2.3-2.65-4.61-5.13-9.32-7.59-14.04-3.51-6.76-6.94-13.57-10.4-20.36-.33-.62-1.05-.41-1.1.02-.55,3.94-1.39,7.85-1.62,11.82-.13,2.14-.06,2.68-.28,3.99-.76,4.58-2.68,6.25-7.41,6.28-8.34.05-16.68,0-25.02,0-2.95,0-5.87-.17-6.51-3.91-.55-3.22,1.4-5.71,5.69-6.11,5.95-.56,11.97-.5,17.95-.57,4.02-.05,4.76-.64,4.88-4.49.4-13.01,3.02-25.3,11.41-36.81-3.01,0-4.92.03-6.75.07-3.3.08-4.5.9-5.86,3.26-1.82,3.17-3.72,6.3-5.63,9.42-1.53,2.5-3.83,3.51-6.36,1.96-2.47-1.52-2.81-3.91-1.21-6.49,2.8-4.53,5.15-9.4,8.45-13.52,1.51-1.88,4.78-3.13,7.33-3.27,7.82-.42,15.69-.54,23.49.01,2.8.2,5.84,2.16,8.05,4.13,2.69,2.4,4.62,5.67,6.8,8.58,2.5,3.34,1.94,5.03,9.98,4.83,1.77-.05,3.56-.04,5.65-.04V14.05H26.04v78.11c-2.4.05-3.72.2-5.88.98V7.94Z"/><path d="M75.16,42.9c-5.05.06-9.45-4.37-9.45-9.52,0-4.97,4.16-9.3,9.04-9.42,5.2-.13,9.5,4.03,9.61,9.29.11,5.33-3.95,9.59-9.2,9.65Z"/><path d="M20.24,106.58c1.79.59,3.33.57,5.33.57v12.94c-2.46.04-3.21.02-5.33,0v-13.52Z"/></svg>