<?xml version="1.0" encoding="UTF-8"?><svg id="a" xmlns="http://www.w3.org/2000/svg" viewBox="0 0 128 128"><path d="M20.16269,7.94365h88.5663v111.82676h-5.76839v-49.59438c-6.10852.04001-6.9113.05762-12.85045.07456-3.62728.01035-6.01568-1.10989-7.94963-3.94259-1.40435-2.05696-2.96262-4.00873-4.95834-6.68643-2.19448,4.87097-4.42424,9.19602-6.02373,13.743-.49323,1.40211.45948,3.54059,1.21599,5.1183,4.60149,9.59656,9.37043,19.11264,14.00094,28.6955.92972,1.92403,1.84038,3.96904,2.15559,6.04989.38235,2.52408-.04974,5.00178-3.0068,6.14934-2.98334,1.15777-5.34082.33387-6.85521-2.29656-2.65277-4.6078-5.13312-9.31809-7.58505-14.03779-3.51288-6.76193-6.93534-13.57089-10.39641-20.35977-.33227-.61986-1.05257-.40997-1.10209.02404-.54576,3.93885-1.3859,7.84915-1.62353,11.81834-.12832,2.14329-.06444,2.68047-.28289,3.98934-.76494,4.58315-2.68326,6.24597-7.4058,6.27578-8.33884.05266-16.6783.00903-25.0175.00495-2.9517-.00144-5.86918-.17429-6.50865-3.90541-.5518-3.2196,1.40235-5.70772,5.68574-6.11232,5.95031-.56205,11.96567-.49528,17.94901-.56747,4.01924-.04849,4.7565-.63988,4.87569-4.49216.40266-13.0141,3.01898-25.29738,11.41497-36.80793-3.0131,0-4.91721.02764-6.74823.07158-3.29674.07913-4.49831.89547-5.85873,3.26154-1.82226,3.16931-3.71743,6.29751-5.62522,9.41647-1.52978,2.50097-3.82705,3.51381-6.35646,1.96096-2.46871-1.5156-2.80807-3.90611-1.20607-6.49448,2.80122-4.52595,5.1529-9.39862,8.4521-13.5173,1.5098-1.88482,4.77877-3.13035,7.32568-3.26859,7.81523-.42417,15.69253-.53599,23.49118.01009,2.79673.19583,5.84013,2.16155,8.04745,4.13112,2.68928,2.39961,4.61981,5.67102,6.79983,8.58449,2.50121,3.34271,1.93759,5.03359,9.9771,4.82622,1.76559-.04554,3.55917-.03875,5.64784-.03875V14.05389H26.04015v78.11218c-2.40011.04954-3.71891.20026-5.87746.97631V7.94365Z"/><path d="M75.16273,42.89628c-5.04799.05827-9.4466-4.37464-9.44664-9.52029-.00005-4.96846,4.15605-9.29944,9.04103-9.42147,5.19693-.12982,9.50176,4.03285,9.60692,9.28967.10667,5.33239-3.95354,9.59152-9.2013,9.65209Z"/><path d="M20.23576,106.58143c1.79408.58583,3.32765.57378,5.33406.57378v12.94407c-2.4614.03907-3.21368.02081-5.33406,0v-13.51785Z"/></svg>