<?xml version="1.0" encoding="UTF-8"?><svg id="a" xmlns="http://www.w3.org/2000/svg" viewBox="0 0 128 128"><path d="M20.2,7.9h88.6v111.8h-5.8v-49.6c-4.6,0-8.8-.2-12.9,0-3.6.3-6-1.1-7.9-3.9-1.4-2.1-3-4-5-6.7-2.2,4.9-4.4,9.2-6,13.7-.5,1.4.5,3.5,1.2,5.1,4.6,9.6,9.4,19.1,14,28.7.9,1.9,1.8,4,2.2,6,.4,2.5,0,5-3,6.1-3,1.2-5.3.3-6.9-2.3-2.7-4.6-5.1-9.3-7.6-14-3.5-6.8-6.9-13.6-10.4-20.4-.4,0-.7,0-1.1,0-.5,3.9-1.1,7.9-1.6,11.8-.2,1.3,0,2.7-.3,4-.8,4.6-2.7,6.2-7.4,6.3-8.3,0-16.7,0-25,0-3,0-5.9-.2-6.5-3.9-.6-3.2,1.4-5.7,5.7-6.1,6-.6,12-.6,17.9-.6,3.4,0,4.8-1,4.9-4.5,0-13,3-25.3,11.4-36.8-3,0-4.8.2-6.6,0-2.9-.4-4.7,1-6,3.4-1.8,3.2-3.7,6.3-5.6,9.4-1.5,2.5-3.8,3.5-6.4,2-2.5-1.5-2.8-3.9-1.2-6.5,2.8-4.5,5.2-9.4,8.5-13.5,1.5-1.9,4.8-3.1,7.3-3.3,7.8-.4,15.7-.5,23.5,0,2.8.2,5.8,2.2,8,4.1,2.7,2.4,4.9,5.5,6.8,8.6,2.4,3.9,5.5,5.4,10,4.8,1.8-.2,3.6,0,5.6,0V14.1H26v78.1c-2,.3-3.8.6-5.9,1V7.9Z"/><path d="M75.2,42.9c-5,0-9.4-4.4-9.4-9.5,0-5,4.2-9.3,9-9.4,5.2-.1,9.5,4,9.6,9.3.1,5.3-4,9.6-9.2,9.7Z"/><path d="M20.2,107.2h5.3v12.7c-1.7,0-3.3.1-5.3.2v-12.9Z"/></svg>