<?xml version="1.0" encoding="UTF-8"?><svg id="a" xmlns="http://www.w3.org/2000/svg" viewBox="0 0 128 128"><path d="M20.163,7.944h88.566v111.827h-5.768v-49.594c-6.109.04-6.911.058-12.85.075-3.627.01-6.016-1.11-7.95-3.943-1.404-2.057-2.963-4.009-4.958-6.686-2.194,4.871-4.424,9.196-6.024,13.743-.493,1.402.459,3.541,1.216,5.118,4.601,9.597,9.37,19.113,14.001,28.695.93,1.924,1.84,3.969,2.156,6.05.382,2.524-.05,5.002-3.007,6.149-2.983,1.158-5.341.334-6.855-2.297-2.653-4.608-5.133-9.318-7.585-14.038-3.513-6.762-6.935-13.571-10.396-20.36-.332-.62-1.053-.41-1.102.024-.546,3.939-1.386,7.849-1.624,11.818-.128,2.143-.064,2.68-.283,3.989-.765,4.583-2.683,6.246-7.406,6.276-8.339.053-16.678.009-25.017.005-2.952-.001-5.869-.174-6.509-3.905-.552-3.22,1.402-5.708,5.686-6.112,5.95-.562,11.966-.495,17.949-.567,4.019-.048,4.757-.64,4.876-4.492.403-13.014,3.019-25.297,11.415-36.808-3.013,0-4.917.028-6.748.072-3.297.079-4.498.895-5.859,3.262-1.822,3.169-3.717,6.298-5.625,9.416-1.53,2.501-3.827,3.514-6.356,1.961-2.469-1.516-2.808-3.906-1.206-6.494,2.801-4.526,5.153-9.399,8.452-13.517,1.51-1.885,4.779-3.13,7.326-3.269,7.815-.424,15.693-.536,23.491.01,2.797.196,5.84,2.162,8.047,4.131,2.689,2.4,4.62,5.671,6.8,8.584,2.501,3.343,1.938,5.034,9.977,4.826,1.766-.046,3.559-.039,5.648-.039V14.054H26.04v78.112c-2.4.05-3.719.2-5.877.976V7.944Z"/><path d="M75.163,42.896c-5.048.058-9.447-4.375-9.447-9.52,0-4.968,4.156-9.299,9.041-9.421,5.197-.13,9.502,4.033,9.607,9.29.107,5.332-3.954,9.592-9.201,9.652Z"/><path d="M20.236,106.581c1.794.586,3.328.574,5.334.574v12.944c-2.461.039-3.214.021-5.334,0,0,0,0-13.518,0-13.518Z"/></svg>