<?xml version="1.0" encoding="UTF-8"?><svg id="a" xmlns="http://www.w3.org/2000/svg" viewBox="0 0 128 128"><defs><style>.b{font-family:TrebuchetMS-Bold, 'Trebuchet MS';font-size:14px;font-weight:700;stroke-width:.5px;}.b,.c,.d,.e{stroke:#000;stroke-miterlimit:10;}.c{stroke-width:6px;}.c,.d,.e{fill:none;}.d{stroke-linecap:round;}.d,.e{stroke-width:3px;}</style></defs><ellipse class="e" cx="112.94" cy="32.3" rx="10.06" ry="29.52"/><ellipse class="e" cx="34.48" cy="114.32" rx="29.52" ry="10.06"/><polygon points="30.44 88.7 30.44 97.17 23.88 97.17 34.48 113.32 45.07 97.17 38.51 97.17 38.51 88.7 30.44 88.7"/><polyline class="c" points="85.67 124.39 85.67 92.29 123 92.29"/><path class="d" d="M76.38,62.32c1.46.91,3.27,2.28,4.95,4.3,3.85,4.6,4.65,9.67,4.86,11.96"/><path class="d" d="M73.15,72.45c.98.77,2.18,1.93,3.31,3.64,2.57,3.89,3.11,8.18,3.25,10.12"/><circle cx="32.55" cy="45.94" r="6.63"/><path d="M26.93,69.12l4.95-4.48c.78-.7,1.25-1.67,1.34-2.72l.26-3.21c.13-1.65.9-3.18,2.14-4.28l13.02-11.46c1.13-.99,2.75-1.17,4.06-.44l6.76,3.76c1.17.49,1.68,1.88,1.14,2.97-.51,1.03-1.81,1.5-2.9.98l-5.03-2.86c-.81-.46-1.82-.33-2.49.32l-1.57,1.53c-.45.44-.48,1.16-.07,1.64l12.49,14.34c.11.12.31.09.36-.07l1.91-5.07c.8-2.21,2.32-2.61,3.63-2.19,1.6.49,1.67,2.51.74,5.13l-3.41,9.24c-.84,1.92-2.13,3.51-5.16.24l-4.13-4.84c-1.13-1.54-2.87.44-3.65,1.75l-2.74,4.61c-.81,1.37-.47,3.12.78,4.09l7.75,5.98c1.3,1.11,1.42,3.06.36,4.24-.97,1.09-2.69,1.29-3.95.39-3.62-2.83-7.24-5.66-10.86-8.49-1.7-1.33-2.19-3.68-1.17-5.58l2.95-5.47c.74-1.38.54-3.08-.52-4.24l-3.53-3.89c-.69-.76-1.94-.39-2.12.61l-.52,2.95c-.19,1.07-.72,2.04-1.51,2.78l-5.91,5.52c-1.03.96-2.65.92-3.6-.06-.99-1.02-.93-2.73.17-3.7Z"/><text class="b" transform="translate(2.87 13.92)"><tspan x="0" y="0">1.</tspan></text></svg>