<?xml version="1.0" encoding="UTF-8"?><svg id="a" xmlns="http://www.w3.org/2000/svg" viewBox="0 0 128 128"><defs><style>.b{font-family:TrebuchetMS-Bold, 'Trebuchet MS';font-size:14px;font-weight:700;stroke-width:.5px;}.b,.c,.d,.e{stroke:#000;stroke-miterlimit:10;}.c{stroke-width:6px;}.c,.d,.e{fill:none;}.d{stroke-linecap:round;}.d,.e{stroke-width:3px;}</style></defs><polyline class="c" points="85.67 124.39 85.67 92.29 123 92.29"/><text class="b" transform="translate(3.87 13.92)"><tspan x="0" y="0">2.</tspan></text><ellipse class="e" cx="112.94" cy="32.3" rx="10.06" ry="29.52"/><ellipse class="e" cx="34.48" cy="114.32" rx="29.52" ry="10.06"/><polygon points="119.82 27.09 111.34 27.09 111.34 20.53 95.2 31.13 111.34 41.72 111.34 35.16 119.82 35.16 119.82 27.09"/><line class="d" x1="63.5" y1="31.84" x2="90.59" y2="31.84"/><line class="d" x1="68.1" y1="50.88" x2="97.03" y2="50.88"/><line class="d" x1="78.59" y1="42.29" x2="98.95" y2="42.29"/><circle cx="17.71" cy="35.09" r="6.63"/><path d="M8.26,49.82h10.25c1.25,0,2.47-.35,3.52-1.02l1.71-1.08c2.17-1.37,4.68-2.1,7.25-2.1h13.38c1.54,0,3.07.27,4.52.81l5.91,2.17c2.13.79,4.47.81,6.62.07l10.72-3.68c1.66-.52,2.37-2.38,2.05-3.48-.28-.96-1.71-2.39-4.01-1.69l-9.78,3.86c-1.81.71-3.85.55-5.51-.45l-7.45-4.46c-1.08-.64-2.31-.98-3.56-.98h-15.01c-1.2,0-2.34.49-3.16,1.36l-3.25,3.43c-1.75,1.85-4.18,2.89-6.72,2.89h-7.48c-1.37-.11-2.49.84-2.61,1.89-.14,1.2,1.02,2.53,2.61,2.44Z"/><path d="M9.45,42.86c-1.46,0-2.44-.91-2.54-2.06-.11-1.28.97-2.44,2.54-2.46.57,0,.69.04.92.31.34.4.35.61.71,1.24.21.37.52.86.99,1.26.43.37,1.06.82,1.06.82.42.28.13.9-.38.9h-3.3Z"/><path d="M56.31,40.24c-.94.4-.87,1.52-.08,2.15.47.37.8.5,1.74.5,1.02,0,1.27-.18,2.07-.5l6.99-2.92c.69-.29,3.08-1.15,3.83-1.18q1.43-.06,1.65-.33c.25-.31-.05-1.16-.54-1.69-.52-.56-.64-.61-1.27-.8,0,0-1.46-.49-4.45.66"/></svg>