<?xml version="1.0" encoding="UTF-8"?><svg id="a" xmlns="http://www.w3.org/2000/svg" viewBox="0 0 128 128"><defs><style>.b{font-family:TrebuchetMS-Bold, 'Trebuchet MS';font-size:14px;font-weight:700;stroke-width:.5px;}.b,.c,.d,.e{stroke:#000;stroke-miterlimit:10;}.c{stroke-width:6px;}.c,.d,.e{fill:none;}.d{stroke-linecap:round;}.d,.e{stroke-width:3px;}</style></defs><polyline class="c" points="85.66988 124.39305 85.66988 92.28526 123 92.28526"/><text class="b" transform="translate(3.87119 13.91645)"><tspan x="0" y="0">2.</tspan></text><ellipse class="e" cx="112.93702" cy="32.29727" rx="10.06298" ry="29.52121"/><ellipse class="e" cx="34.47879" cy="114.3166" rx="29.52121" ry="10.06298"/><polygon points="119.81727 27.09224 111.34219 27.09224 111.34219 20.53414 95.19918 31.12799 111.34219 41.72184 111.34219 35.16374 119.81727 35.16374 119.81727 27.09224"/><line class="d" x1="63.5" y1="31.83734" x2="90.59459" y2="31.83734"/><line class="d" x1="68.10459" y1="50.87967" x2="97.02591" y2="50.87967"/><line class="d" x1="78.59081" y1="42.29341" x2="98.95375" y2="42.29341"/><circle cx="17.70502" cy="35.08869" r="6.63315"/><path d="M8.25967,49.81977h10.25359c1.24679,0,2.46805-.35337,3.5222-1.01915l1.70604-1.0775c2.16921-1.37003,4.68229-2.09719,7.24792-2.09719h13.3822c1.54223,0,3.07232.27267,4.51962.80541l5.90602,2.17399c2.134.78552,4.47357.81129,6.62435.07296l10.72421-3.68145c1.65786-.52067,2.36574-2.38376,2.04963-3.48326-.27684-.96289-1.70553-2.39409-4.00675-1.68914l-9.78342,3.86472c-1.80828.71432-3.8458.548-5.51429-.45011l-7.45168-4.4577c-1.07635-.64389-2.30713-.98393-3.56138-.98393h-15.01155c-1.19635,0-2.33992.49257-3.16183,1.36189l-3.24654,3.43383c-1.74591,1.84664-4.17512,2.89297-6.71644,2.89297h-7.48189c-1.36597-.11063-2.48825.84019-2.61002,1.89-.13871,1.19592,1.01999,2.52886,2.61002,2.44364Z"/><path d="M9.44565,42.8628c-1.46341.00445-2.44396-.90834-2.54186-2.05802-.10868-1.27625.96744-2.43953,2.54186-2.46305.57485-.00295.69061.04172.9195.31222.3414.40347.34916.61297.70673,1.23775.20991.36677.52108.85556.99066,1.25982.43039.37051,1.05521.81544,1.05521.81544.4204.27589.12835.89586-.37534.89584h-3.29675Z"/><path d="M56.30626,40.23952c-.94161.40053-.87486,1.51701-.0767,2.14661.46658.36804.79505.49916,1.73877.49921,1.01541.00006,1.27433-.18082,2.0712-.50453l6.98841-2.91869c.69232-.28915,3.0825-1.1499,3.8322-1.17928q1.42733-.05593,1.64928-.32686c.2525-.30822-.04651-1.1643-.54163-1.69492-.52335-.56088-.64256-.60989-1.27406-.80196,0,0-1.45581-.48935-4.44896.65756"/></svg>