<?xml version="1.0" encoding="UTF-8"?><svg id="a" xmlns="http://www.w3.org/2000/svg" viewBox="0 0 128 128"><defs><style>.b{stroke-width:.5px;}.b,.c,.d{isolation:isolate;}.b,.d{font-family:TrebuchetMS-Bold, 'Trebuchet MS';font-size:14px;font-weight:700;}.b,.e,.f,.g{fill:none;stroke:#000;stroke-miterlimit:10;}.e{stroke-width:6px;}.f{stroke-linecap:round;}.f,.g{stroke-width:3px;}</style></defs><ellipse class="g" cx="112.937" cy="32.297" rx="10.063" ry="29.521"/><ellipse class="g" cx="34.479" cy="114.317" rx="29.521" ry="10.063"/><polygon points="30.443 88.699 30.443 97.174 23.885 97.174 34.479 113.317 45.073 97.174 38.515 97.174 38.515 88.699 30.443 88.699"/><polyline class="e" points="85.67 124.393 85.67 92.285 123 92.285"/><path class="f" d="M76.377,62.319c1.459.911,3.266,2.282,4.952,4.298,3.846,4.6,4.648,9.672,4.858,11.959"/><path class="f" d="M73.147,72.448c.975.771,2.183,1.931,3.309,3.636,2.57,3.892,3.106,8.184,3.246,10.118"/><circle cx="32.551" cy="45.941" r="6.633"/><path d="M26.927,69.121l4.947-4.476c.776-.702,1.255-1.674,1.339-2.718l.258-3.211c.132-1.65.901-3.184,2.144-4.278l13.02-11.46c1.126-.991,2.754-1.166,4.065-.437l6.757,3.756c1.172.494,1.678,1.88,1.144,2.967-.508,1.033-1.808,1.498-2.901.985l-5.035-2.865c-.808-.46-1.823-.33-2.489.318l-1.569,1.525c-.454.442-.484,1.161-.068,1.639l12.494,14.337c.107.123.307.087.364-.066l1.913-5.068c.801-2.212,2.32-2.614,3.628-2.195,1.601.494,1.67,2.506.74,5.125l-3.406,9.239c-.836,1.92-2.127,3.508-5.158.235l-4.134-4.836c-1.125-1.542-2.868.437-3.649,1.753l-2.735,4.609c-.811,1.366-.475,3.122.783,4.092l7.747,5.975c1.301,1.106,1.422,3.055.364,4.245-.965,1.086-2.689,1.287-3.953.387-3.619-2.831-7.239-5.663-10.858-8.494-1.697-1.328-2.19-3.685-1.168-5.581l2.948-5.469c.744-1.381.536-3.081-.519-4.241l-3.534-3.888c-.688-.756-1.944-.392-2.121.614l-.519,2.949c-.187,1.065-.716,2.04-1.506,2.779l-5.909,5.522c-1.031.964-2.651.915-3.598-.065-.986-1.02-.929-2.727.173-3.703h0Z"/><g class="c"><text class="d" transform="translate(2.871 13.916)"><tspan x="0" y="0">1.</tspan></text><text class="b" transform="translate(2.871 13.916)"><tspan x="0" y="0">1.</tspan></text></g></svg>