<?xml version="1.0" encoding="UTF-8"?><svg id="a" xmlns="http://www.w3.org/2000/svg" viewBox="0 0 128 128"><defs><style>.b{font-family:TrebuchetMS-Bold, 'Trebuchet MS';font-size:14px;font-weight:700;stroke-width:.5px;}.b,.c,.d,.e{stroke:#000;stroke-miterlimit:10;}.c{stroke-width:6px;}.c,.d,.e{fill:none;}.d{stroke-linecap:round;}.d,.e{stroke-width:3px;}</style></defs><ellipse class="e" cx="112.93702" cy="32.29727" rx="10.06298" ry="29.52121"/><ellipse class="e" cx="34.47879" cy="114.3166" rx="29.52121" ry="10.06298"/><polygon points="30.44304 88.69851 30.44304 97.17359 23.88494 97.17359 34.47879 113.3166 45.07264 97.17359 38.51454 97.17359 38.51454 88.69851 30.44304 88.69851"/><polyline class="c" points="85.66988 124.39305 85.66988 92.28526 123 92.28526"/><path class="d" d="M76.37675,62.31932c1.45924.91108,3.26627,2.28205,4.95179,4.29779,3.84635,4.5999,4.64754,9.67235,4.85837,11.95905"/><path class="d" d="M73.1474,72.4477c.9751.77084,2.18261,1.93079,3.30891,3.63626,2.57023,3.89187,3.1056,8.18355,3.24648,10.11827"/><circle cx="32.55138" cy="45.94142" r="6.63315"/><path d="M26.92672,69.1208l4.94685-4.47615c.7761-.70225,1.25489-1.67426,1.33861-2.71757l.25767-3.21113c.13241-1.65009.90114-3.18407,2.14375-4.2778l13.01966-11.4597c1.12601-.9911,2.7539-1.16627,4.06499-.43743l6.75655,3.75598c1.17203.49398,1.67828,1.87968,1.14424,2.96687-.50753,1.03322-1.80788,1.49809-2.90052.98476l-5.03477-2.86464c-.80797-.45971-1.82251-.33015-2.48903.31785l-1.56889,1.52531c-.45418.44157-.48393,1.16116-.06775,1.63871l12.49446,14.33668c.10719.12299.30684.08708.36445-.06555l1.91277-5.06763c.80139-2.21224,2.3202-2.61414,3.62773-2.19473,1.6006.49378,1.6697,2.50591.73978,5.12538l-3.40592,9.23947c-.83615,1.92035-2.1274,3.50792-5.15754.23518l-4.13449-4.83648c-1.12543-1.54152-2.86779.43682-3.64864,1.7525l-2.73533,4.60885c-.81058,1.36577-.47453,3.12167.78308,4.09163l7.74743,5.97537c1.30122,1.10586,1.42167,3.05511.36374,4.24471-.9655,1.08566-2.68866,1.28694-3.95253.38727-3.6194-2.83136-7.2388-5.66271-10.85821-8.49407-1.69699-1.32751-2.19027-3.68481-1.16791-5.58135l2.94824-5.4692c.74428-1.3807.53635-3.08076-.51876-4.24138l-3.53442-3.88786c-.6876-.75635-1.94421-.39244-2.12122.6143l-.5185,2.94896c-.18726,1.06504-.71579,2.04029-1.50587,2.77863l-5.90871,5.52183c-1.03128.9639-2.65121.91532-3.59773-.06451-.98577-1.02047-.92855-2.72746.17274-3.70305Z"/><text class="b" transform="translate(2.87119 13.91645)"><tspan x="0" y="0">1.</tspan></text></svg>