<?xml version="1.0" encoding="UTF-8"?><svg id="a" xmlns="http://www.w3.org/2000/svg" viewBox="0 0 128 128"><defs><style>.b{stroke-width:.5px;}.b,.c,.d{isolation:isolate;}.b,.d{font-family:TrebuchetMS-Bold, 'Trebuchet MS';font-size:14px;font-weight:700;}.b,.e,.f,.g{fill:none;stroke:#000;stroke-miterlimit:10;}.e{stroke-width:6px;}.f{stroke-linecap:round;}.f,.g{stroke-width:3px;}</style></defs><polyline class="e" points="85.67 124.393 85.67 92.285 123 92.285"/><g class="c"><text class="d" transform="translate(3.871 13.916)"><tspan x="0" y="0">2.</tspan></text><text class="b" transform="translate(3.871 13.916)"><tspan x="0" y="0">2.</tspan></text></g><ellipse class="g" cx="112.937" cy="32.297" rx="10.063" ry="29.521"/><ellipse class="g" cx="34.479" cy="114.317" rx="29.521" ry="10.063"/><polygon points="119.817 27.092 111.342 27.092 111.342 20.534 95.199 31.128 111.342 41.722 111.342 35.164 119.817 35.164 119.817 27.092"/><line class="f" x1="63.5" y1="31.837" x2="90.595" y2="31.837"/><line class="f" x1="68.105" y1="50.88" x2="97.026" y2="50.88"/><line class="f" x1="78.591" y1="42.293" x2="98.954" y2="42.293"/><circle cx="17.705" cy="35.089" r="6.633"/><path d="M8.26,49.82h10.254c1.247,0,2.468-.353,3.522-1.019l1.706-1.077c2.169-1.37,4.682-2.097,7.248-2.097h13.382c1.542,0,3.072.273,4.52.805l5.906,2.174c2.134.786,4.474.811,6.624.073l10.724-3.681c1.658-.521,2.366-2.384,2.05-3.483-.277-.963-1.706-2.394-4.007-1.689l-9.783,3.865c-1.808.714-3.846.548-5.514-.45l-7.452-4.458c-1.076-.644-2.307-.984-3.561-.984h-15.012c-1.196,0-2.34.493-3.162,1.362l-3.247,3.434c-1.746,1.847-4.175,2.893-6.716,2.893h-7.482c-1.366-.111-2.488.84-2.61,1.89-.139,1.196,1.02,2.529,2.61,2.444h0Z"/><path d="M9.446,42.863c-1.463.004-2.444-.908-2.542-2.058-.109-1.276.967-2.44,2.542-2.463.575-.003.691.042.92.312.341.403.349.613.707,1.238.21.367.521.856.991,1.26.43.371,1.055.815,1.055.815.42.276.128.896-.375.896h-3.297Z"/><path d="M56.306,40.24c-.942.401-.875,1.517-.077,2.147.467.368.795.499,1.739.499,1.015,0,1.274-.181,2.071-.505l6.988-2.919c.692-.289,3.082-1.15,3.832-1.179.952-.037,1.501-.146,1.649-.327.253-.308-.047-1.164-.542-1.695-.523-.561-.643-.61-1.274-.802,0,0-1.456-.489-4.449.658"/></svg>