<?xml version="1.0" encoding="UTF-8"?><svg id="a" xmlns="http://www.w3.org/2000/svg" viewBox="0 0 128 128"><path d="M21.797,36.196c-1.794,1.177-3.797,2.358-3.797,5.691v71.207c-.058,4.688,3.801,8.553,8.444,8.515,4.591-.037,8.365-3.879,8.307-8.515v-58.652l19.95-10.374v12.568l14.563,15.96c2.018,2.204,5.43,2.321,7.491.426,2.177-2.002,2.216-5.668-.11-7.807-3.79-4.056-7.581-8.113-11.371-12.169v-22.543c.025-4.033-2.141-7.723-5.603-9.515-4.472-2.315-8.859-.301-9.36-.06"/><circle cx="75.721" cy="19.197" r="11.185"/><path d="M109,76.864v-31.81h-36.359c-.202-.015-2.363-.143-3.55,1.382-1.198,1.539-.938,4.164.953,5.889,7.314,8.18,14.628,16.36,21.943,24.54h17.013,0Z"/><circle cx="81.249" cy="41.744" r="1.639"/><circle cx="85.267" cy="41.744" r="1.639"/><circle cx="81.619" cy="37.426" r="1.639"/><circle cx="85.818" cy="38.152" r="1.639"/><circle cx="83.088" cy="33.692" r="1.639"/><circle cx="87.457" cy="34.804" r="1.639"/><circle cx="86.085" cy="30.827" r="1.639"/><circle cx="90.997" cy="33.165" r="1.639"/><circle cx="89.542" cy="29.359" r="1.639"/><circle cx="93.447" cy="29.359" r="1.639"/><circle cx="94.948" cy="34.38" r="1.639"/><circle cx="97.479" cy="31.282" r="1.639"/><circle cx="100.757" cy="34.38" r="1.639"/><circle cx="97.895" cy="37.313" r="1.639"/></svg>