<?xml version="1.0" encoding="UTF-8"?><svg id="a" xmlns="http://www.w3.org/2000/svg" viewBox="0 0 128 128"><path d="M21.8,36.2c-1.79,1.18-3.8,2.36-3.8,5.69v71.21c-.06,4.69,3.8,8.55,8.44,8.51,4.59-.04,8.36-3.88,8.31-8.51v-58.65l19.95-10.37v12.57l14.56,15.96c2.02,2.2,5.43,2.32,7.49.43,2.18-2,2.22-5.67-.11-7.81-3.79-4.06-7.58-8.11-11.37-12.17v-22.54c.03-4.03-2.14-7.72-5.6-9.52-4.47-2.32-8.86-.3-9.36-.06"/><circle cx="75.72" cy="19.2" r="11.18"/><path d="M109,76.86v-31.81h-36.36c-.2-.02-2.36-.14-3.55,1.38-1.2,1.54-.94,4.16.95,5.89,7.31,8.18,14.63,16.36,21.94,24.54h17.01Z"/><circle cx="81.25" cy="41.74" r="1.64"/><circle cx="85.27" cy="41.74" r="1.64"/><circle cx="81.62" cy="37.43" r="1.64"/><circle cx="85.82" cy="38.15" r="1.64"/><circle cx="83.09" cy="33.69" r="1.64"/><circle cx="87.46" cy="34.8" r="1.64"/><circle cx="86.08" cy="30.83" r="1.64"/><circle cx="91" cy="33.17" r="1.64"/><circle cx="89.54" cy="29.36" r="1.64"/><circle cx="93.45" cy="29.36" r="1.64"/><circle cx="94.95" cy="34.38" r="1.64"/><circle cx="97.48" cy="31.28" r="1.64"/><circle cx="100.76" cy="34.38" r="1.64"/><circle cx="97.89" cy="37.31" r="1.64"/></svg>