<?xml version="1.0" encoding="UTF-8"?><svg id="a" xmlns="http://www.w3.org/2000/svg" viewBox="0 0 128 128"><path d="M21.79736,36.1961c-1.79382,1.17713-3.79736,2.35797-3.79736,5.69053v71.20733c-.05814,4.68797,3.80113,8.55252,8.44375,8.51469,4.5914-.03742,8.36463-3.87868,8.3068-8.51469v-58.65219l19.94973-10.37386v12.56833l14.5633,15.95978c2.01757,2.2038,5.42984,2.32131,7.49118.42567,2.17661-2.00164,2.21612-5.66772-.10978-7.80707-3.79045-4.05644-7.58089-8.11289-11.37135-12.16933v-22.54319c.025-4.03265-2.14114-7.72311-5.60267-9.51547-4.4715-2.31531-8.85907-.30062-9.35962-.0604"/><circle cx="75.72104" cy="19.19683" r="11.18479"/><path d="M109,76.86385v-31.81047h-36.35883c-.20239-.01508-2.36326-.14317-3.55022,1.38232-1.19774,1.53933-.9381,4.16385.95345,5.88864,7.31425,8.17984,14.62849,16.35968,21.94273,24.53951h17.01288Z"/><circle cx="81.24874" cy="41.74391" r="1.63878"/><circle cx="85.26705" cy="41.74391" r="1.63878"/><circle cx="81.61895" cy="37.42621" r="1.63878"/><circle cx="85.81846" cy="38.15207" r="1.63878"/><circle cx="83.0876" cy="33.69227" r="1.63878"/><circle cx="87.45741" cy="34.80442" r="1.63878"/><circle cx="86.08469" cy="30.82703" r="1.63878"/><circle cx="90.9971" cy="33.1653" r="1.63878"/><circle cx="89.54246" cy="29.35913" r="1.63878"/><circle cx="93.4473" cy="29.35913" r="1.63878"/><circle cx="94.94849" cy="34.37964" r="1.63878"/><circle cx="97.47892" cy="31.28163" r="1.63878"/><circle cx="100.75717" cy="34.37964" r="1.63878"/><circle cx="97.89482" cy="37.31341" r="1.63878"/></svg>