<?xml version="1.0" encoding="UTF-8"?><svg id="a" xmlns="http://www.w3.org/2000/svg" viewBox="0 0 128 128"><path d="M71.45,96.25c.58-14.31,1.38-8.5-8.05-18.61-4.92-5.28-5.63-5.05-10.59.45-6.02,6.67-11.91,13.45-17.86,20.18-.77.87-1.52,1.77-2.34,2.59-1.53,1.53-3.58,1.74-5.71.63-1.94-1.01-2.18-3.01-1.67-5.19.26-1.09.91-2.15,1.61-3.05,2.88-3.66,5.76-7.32,8.81-10.84,9.24-10.68,18.53-21.31,27.84-31.92,1.9-2.17,2.44-4.23,1.59-7.25-2.85-10.14-1.83-6.4-2.43-8.63-.67-2.49-.4-4.39,1.33-5.87,3.78-3.24,7.65-6.4,11.71-9.28,2.38-1.69,4.6-1.21,5.77.51,1.14,1.68.87,3.95-1.29,5.75-2.97,2.48-2.68,2.24-6.25,4.96-3.18,2.43-3.17,2.45-2.01,6.14.65,2.06.73,3.19,2.05,6.15.85,1.91.72,1.91,2.49,4.15,3.19,4.02,3.92,5.5,12.48,5.52,2.46,0,5.02-.21,7.46.18,1.48.23,3.66,1.22,4.6,3.22,1.83,3.89,2.51,5.17,4.52,9.84,1,2.33-.56,4.98-3.4,4.85-1.95-.09-3.12-2.91-3.73-4.22-3-6.49-2.56-6.84-12.74-6.73-3.76.04-4.82.34-8.76,4.69-.55.61-1.08,1.26-1.59,1.92q-3.94,5,.07,9.89c.53.64,1.11,1.25,1.6,1.92,4.1,5.57,4.1,5.11,3.69,11.4-.3,4.64-.48,9.3-.72,13.94-.04.83-.1,1.68-.34,2.46-.64,2.03-1.81,3.66-4.19,3.6-2.44-.05-3.66-1.84-3.86-3.89-.3-3.13-.08-6.3-.08-9.46Z"/><path d="M94.35,40.13c.04,4.52-3.62,8.25-8.13,8.29-4.44.04-8.27-3.72-8.3-8.16-.03-4.32,3.91-8.41,8.16-8.47,4.15-.06,8.24,4.06,8.28,8.34Z"/><polygon points="13.16 106.63 4.49 98.06 12.09 94.21 12.11 85.31 23.05 85.52 23.31 77.3 35.45 78.67 27.73 80.52 27.05 90.29 16.97 90.28 16.62 98.13 11.16 99.18 13.16 106.63"/><polygon points="45.16 105.95 48.33 100.36 48.61 86.88 53.36 101.45 45.16 105.95"/><polygon points="28.68 30.39 28.68 54.32 36.12 50.09 40.44 69.29 40.44 42.23 31.64 47.22 28.68 30.39"/><polygon points="101.11 83.8 103.77 93.03 123.51 81.83 106.81 85.81 104.71 75.48 85.58 91.4 101.11 83.8"/></svg>