<?xml version="1.0" encoding="UTF-8"?><svg id="a" xmlns="http://www.w3.org/2000/svg" viewBox="0 0 128 128"><path d="M71.453,96.247c.583-14.312,1.378-8.499-8.048-18.609-4.923-5.28-5.626-5.051-10.592.453-6.017,6.67-11.911,13.45-17.861,20.18-.771.872-1.521,1.766-2.343,2.587-1.53,1.526-3.579,1.741-5.705.627-1.936-1.014-2.183-3.009-1.665-5.192.258-1.087.908-2.154,1.613-3.048,2.882-3.657,5.764-7.321,8.809-10.841,9.236-10.679,18.531-21.306,27.844-31.919,1.905-2.171,2.438-4.233,1.591-7.253-2.847-10.143-1.827-6.395-2.431-8.629-.674-2.49-.399-4.391,1.328-5.87,3.78-3.239,7.647-6.404,11.706-9.279,2.381-1.686,4.603-1.211,5.771.508,1.139,1.677.866,3.955-1.293,5.753-2.974,2.478-2.679,2.236-6.247,4.961-3.178,2.427-3.173,2.449-2.013,6.143.648,2.063.728,3.194,2.045,6.151.852,1.913.717,1.91,2.49,4.145,3.191,4.021,3.918,5.504,12.484,5.516,2.461.003,5.017-.205,7.459.179,1.478.233,3.657,1.224,4.6,3.224,1.833,3.887,2.508,5.166,4.516,9.842,1.001,2.332-.564,4.983-3.402,4.848-1.95-.093-3.12-2.906-3.727-4.219-2.999-6.49-2.56-6.84-12.74-6.729-3.765.041-4.818.344-8.76,4.691-.553.61-1.08,1.263-1.595,1.916-2.629,3.336-2.606,6.631.067,9.886.528.643,1.105,1.249,1.597,1.917,4.099,5.567,4.099,5.113,3.692,11.403-.301,4.64-.481,9.295-.722,13.944-.043.826-.096,1.681-.343,2.46-.645,2.035-1.807,3.656-4.19,3.602-2.436-.054-3.661-1.84-3.857-3.887-.299-3.127-.078-6.304-.078-9.46h0Z"/><path d="M94.349,40.134c.038,4.52-3.62,8.249-8.134,8.292-4.442.042-8.274-3.725-8.3-8.16-.026-4.317,3.912-8.407,8.158-8.473,4.152-.064,8.24,4.056,8.276,8.341Z"/><polygon points="13.163 106.634 4.486 98.063 12.089 94.213 12.11 85.315 23.049 85.517 23.315 77.303 35.453 78.671 27.727 80.519 27.05 90.287 16.972 90.278 16.617 98.128 11.162 99.182 13.163 106.634"/><polygon points="45.163 105.949 48.33 100.355 48.609 86.882 53.355 101.451 45.163 105.949"/><polygon points="28.68 30.385 28.68 54.32 36.122 50.091 40.436 69.289 40.436 42.226 31.64 47.215 28.68 30.385"/><polygon points="101.113 83.798 103.766 93.028 123.514 81.829 106.813 85.806 104.713 75.478 85.579 91.4 101.113 83.798"/></svg>