<?xml version="1.0" encoding="UTF-8"?><svg id="a" xmlns="http://www.w3.org/2000/svg" viewBox="0 0 128 128"><path d="M71.44944,89.88983c.58343-14.31234,1.37808-8.49913-8.04768-18.60912-4.92259-5.27993-5.62625-5.05142-10.59158.45298-6.01669,6.6699-11.91129,13.44993-17.86126,20.18005-.7708.87187-1.52068,1.76649-2.34344,2.58722-1.5299,1.52615-3.57911,1.74147-5.70529.62745-1.93555-1.01414-2.18273-3.00937-1.66506-5.19216.2577-1.08662.90818-2.15418,1.61256-3.04781,2.88233-3.65678,5.76443-7.3206,8.80931-10.84111,9.236-10.67872,18.5313-21.30636,27.84354-31.91876,1.90473-2.17067,2.43842-4.23345,1.59099-7.2527-2.84688-10.14292-1.82674-6.39502-2.43123-8.62948-.67364-2.4901-.39862-4.39107,1.32761-5.87038,3.77976-3.23908,7.64732-6.4039,11.706-9.27855,2.38113-1.68648,4.60269-1.2109,5.77078.50816,1.13926,1.67663.86595,3.9545-1.29287,5.75334-2.97358,2.47774-2.6793,2.23574-6.24735,4.96088-3.17782,2.4271-3.1731,2.44894-2.01295,6.14272.64783,2.06259.72835,3.19447,2.04536,6.1512.85193,1.9126.71654,1.90963,2.49041,4.1452,3.19057,4.02101,3.91782,5.50415,12.48405,5.51556,2.46084.00328,5.01694-.20549,7.45898.17947,1.47774.23294,3.65735,1.22382,4.60047,3.22356,1.83329,3.88721,2.50823,5.16595,4.51557,9.84161,1.00122,2.33214-.56432,4.98259-3.40166,4.84766-1.94987-.09273-3.11998-2.90594-3.72685-4.2193-2.99869-6.48962-2.56021-6.83987-12.73992-6.72904-3.76468.04099-4.81835.34366-8.76027,4.69069-.55288.6097-1.0803,1.26314-1.59483,1.91613q-3.94316,5.00418.06712,9.88613c.52799.64283,1.10546,1.24853,1.59739,1.91661,4.09949,5.5674,4.09949,5.11291,3.69151,11.40266-.30097,4.64-.48104,9.29542-.72181,13.94419-.04276.82562-.09609,1.68105-.34287,2.45985-.64475,2.03474-1.80699,3.65551-4.18987,3.60231-2.43645-.05439-3.66089-1.83951-3.85651-3.88688-.29883-3.12739-.07837-6.3044-.07837-9.46036Z"/><path d="M94.34488,33.77761c.03767,4.52037-3.61999,8.24907-8.13372,8.29168-4.4421.04193-8.27362-3.72487-8.3002-8.16001-.02587-4.31708,3.91237-8.40725,8.15838-8.4731,4.15195-.06439,8.23983,4.05603,8.27554,8.34143Z"/><polygon points="16.1803 93.99861 23.0992 94.07254 23.0992 102.08968 36.27806 102.08968 36.27806 94.07254 43.19696 94.07254 43.19696 103.95669 16.1803 103.95669 16.1803 93.99861"/><polygon points="10.13998 105.71387 10.13998 113.73101 16.50977 119.88114 16.50977 123 42.86749 123 42.86749 119.88114 49.23727 113.73101 49.23727 105.71387 10.13998 105.71387"/><polygon points="13.15878 100.27762 4.48176 91.70614 12.08535 87.85622 12.10569 78.95781 23.04513 79.16039 23.31086 70.94623 35.44865 72.31386 27.72268 74.16262 27.04617 83.92985 16.96766 83.92108 16.61315 91.77115 11.15771 92.82544 13.15878 100.27762"/><polygon points="45.1589 99.59182 48.32644 93.99861 48.60538 80.52488 53.35142 95.09412 45.1589 99.59182"/><polygon points="28.67609 24.0287 28.67609 47.96279 36.11849 43.73415 40.4317 62.93217 40.4317 35.86889 31.63614 40.85868 28.67609 24.0287"/><polygon points="101.10887 77.4408 103.76223 86.67137 123.51048 75.47221 106.80892 79.44939 104.70906 69.12136 85.57515 85.04361 101.10887 77.4408"/></svg>