<?xml version="1.0" encoding="UTF-8"?><svg id="a" xmlns="http://www.w3.org/2000/svg" viewBox="0 0 128 128"><defs><style>.b{fill:none;stroke:#000;stroke-linecap:round;stroke-miterlimit:10;stroke-width:3px;}</style></defs><path class="b" d="M5.31688,8.89131c1.65453.04053,4.74583.37383,6.53253,2.0824,2.22799,2.13056,1.4544,4.49198,3.56983,5.87534,2.20151,1.43966,4.06555-.02017,7.41262.19315,2.8445.18129,3.81327,3.29312,4.70992,4.78973"/><path class="b" d="M12.32731,105.49208c.03715-1.76582.36304-3.84589,1.7436-4.62956,1.21345-.68881,2.13466.25233,3.84795-.18037,2.94795-.74452,4.43561-4.59538,4.82309-5.59838,1.33021-3.4433.29765-5.00692,1.67033-6.42647.83945-.86811,2.58219-1.67419,6.67379-.78162"/><path class="b" d="M122.68312,102.74037c-.5492-.96343-1.36432-2.58356-3.03371-3.01172-3.94247-1.01114-5.97855,1.05836-8.59805-.34606-3.18069-1.70531-1.78969-7.02389-4.89743-8.52515-1.66424-.80395-3.71555-.07696-5.28754.74573"/><path class="b" d="M96.68857,24.30301c.25218-2.19973,0-3.32122,1.7405-4.90572.76383-.69536,2.41054-.58144,3.91455-.65957,3.45586-.17953,5.38576-.62834,6.82197-3.8598,1.06519-2.39668.33594-4.30431.80786-6.10386.4819-1.83759,3.29906-1.91605,4.93695-1.97478"/><circle cx="59.66524" cy="40.98746" r="9.27997"/><path d="M39.93922,117.87633l23.23184-8.21807c2.23163-.78942,3.77632-2.83503,3.92478-5.19751l1.07471-17.10258c.12553-1.99769,1.18068-3.82088,2.85027-4.92496l.96867-.64057c.42153-.27875.95766.13233.79785.61176l-.48082,1.44246c-.35815,1.07446.08349,2.25307,1.05954,2.82758l8.36328,4.9227c1.47993.8711,2.26178,2.57091,1.96012,4.26148l-3.29531,18.46745c-1.07252,3.59856.8263,6.56689,2.69409,6.85095,1.45652.22151,3.30248-1.12719,4.26733-3.30068,2.37573-8.19807,4.75146-16.39615,7.12719-24.59422.6674-2.30305-.10074-4.7823-1.95332-6.30457l-14.93884-12.27532c-1.59039-1.30683-2.68325-3.11613-3.09615-5.13273-.48867-2.38669-.51553-5.44052-.52452-6.91327-.00404-.66183-.00376-1.65309-.44516-1.59824-.82068.10197-1.98812.83139-3.33533,1.54275-1.74079.91917-4.02629,1.75881-6.57248,1.70889-3.13069-.06139-4.63299-.50944-5.7441-1.01048-1.8189-.82021-3.13175-1.92959-4.41964-3.18411-1.88744-1.83854-1.6965-1.30689-3.31476-.126-.09673.07059-.39735.26745-.39735.26745-.95847.64512-2.12508.99139-.96847,1.9009l2.04267,2.00956c1.48468,1.59029,2.5617,3.37023,3.02444,4.41057.47362,1.06479,1.03117,3.59277,1.03117,3.59277.89679,4.80701,2.02754,9.40618,1.87074,14.21482l-.39551,12.12876c-.04871,1.49388-.94783,2.82819-2.31414,3.43421l-17.38409,7.71069c-2.47844,1.27105-3.3122,4.27458-2.1101,6.34193.99548,1.71202,3.26084,2.56483,5.4014,1.87565Z"/><path d="M81.84457,50.22589l3.36552-3.67149c1.09763-1.19741,1.37858-2.93265.71486-4.41524l-7.65154-17.09175c-.91892-2.54623-3.46696-3.76389-5.27234-3.18299-2.06018.66288-3.49007,3.77617-1.99623,6.59014,1.56537,3.50218,3.13074,7.00437,4.69611,10.50655,1.18558,2.65248.4627,5.76979-1.76928,7.62977l-4.43265,3.69387c-.88438.73699-2.41997,2.18679-3.48973,2.61211-1.26938.50468-3.47356.65698-4.70002.65698,0,0-1.85851-.05116-2.02649.06322-.18114.12333-.16722.28935-.15505.79726.01907.79576-.18668.93977,2.08234,1.31734,1.24918.20787,2.95281.48614,5.31974-.11132,1.34805-.34974,7.69317-6.84323,7.69317-6.84323,2.2603-2.38496,1.29601-2.21235,4.01237.80737.32392.3601.81664.89088,1.35117,1.1433.77165.36439,1.6814.12719,2.25804-.50188Z"/><path d="M43.20327,54.93043l3.65105-3.77606c.4839-.50047.50087-1.28913.03896-1.80996l-2.18382-2.46233c-1.43322-1.616-2.13509-3.75234-1.93954-5.90346l1.18949-13.08434c-.2348-1.75845-1.57961-3.13596-3.22512-3.37385-1.88425-.2724-3.78521,1.00412-4.27677,3.00175-.74798,5.08524-1.49596,10.17049-2.24394,15.25573-.49623,3.3737.68959,6.77674,3.17497,9.11146l3.30161,3.10148c.7134.67016,1.83274.64325,2.51311-.06042Z"/><path d="M6.80342,58.78774l3.20576-.01922c4.0296.09863,7.64284-.94336,10.10454-3.91163l4.62718-6.39354s5.86581,6.73574,8.77676,7.86334c2.04599.79254,7.14799,1.42871,10.14143.19784,2.85986-1.17594,8.33111-6.2571,8.33111-6.2571,0,0,2.81085,3.71198,5.28788,5.34466,2.55175,1.68194,9.11588,2.02835,10.60137.83303,2.51177-2.02112,7.92938-7.49167,7.92938-7.49167,0,0,3.45599,5.09683,7.65995,7.46687,1.41289.79653,5.58695,2.24574,8.1038.64411,4.14445-2.63738,7.85884-6.797,7.85884-6.797l3.72247,3.52284c3.32384,3.14559,7.74685,4.86528,12.32256,4.79108l4.47934-.07264s-2.76297,3.5165-11.67981,3.26532c-4.24708-.11964-8.77086-5.45806-8.77086-5.45806,0,0-3.78808,6.08601-10.85579,6.65421-6.92015.55634-13.23257-6.86133-13.23257-6.86133,0,0-5.22756,6.40898-11.25386,6.46926-7.50417.07506-12.76081-6.86133-12.76081-6.86133,0,0-4.1733,5.80609-13.03653,6.1752-7.51149.31282-13.23257-7.05737-13.23257-7.05737,0,0-3.81953,7.64549-9.8019,7.64549-6.6653,0-8.52766-3.69234-8.52766-3.69234Z"/></svg>