<?xml version="1.0" encoding="UTF-8"?><svg id="a" xmlns="http://www.w3.org/2000/svg" viewBox="0 0 128 128"><defs><style>.b{fill:none;stroke:#000;stroke-linecap:round;stroke-miterlimit:10;stroke-width:3px;}</style></defs><path class="b" d="M5.317,8.891c1.655.041,4.746.374,6.533,2.082,2.228,2.131,1.454,4.492,3.57,5.875,2.202,1.44,4.066-.02,7.413.193,2.844.181,3.813,3.293,4.71,4.79"/><path class="b" d="M12.327,105.492c.037-1.766.363-3.846,1.744-4.63,1.213-.689,2.135.252,3.848-.18,2.948-.745,4.436-4.595,4.823-5.598,1.33-3.443.298-5.007,1.67-6.426.839-.868,2.582-1.674,6.674-.782"/><path class="b" d="M122.683,102.74c-.549-.963-1.364-2.584-3.034-3.012-3.942-1.011-5.979,1.058-8.598-.346-3.181-1.705-1.79-7.024-4.897-8.525-1.664-.804-3.716-.077-5.288.746"/><path class="b" d="M96.689,24.303c.252-2.2,0-3.321,1.741-4.906.764-.695,2.411-.581,3.915-.66,3.456-.18,5.386-.628,6.822-3.86,1.065-2.397.336-4.304.808-6.104.482-1.838,3.299-1.916,4.937-1.975"/><circle cx="59.665" cy="40.987" r="9.28"/><path d="M39.939,117.876l23.232-8.218c2.232-.789,3.776-2.835,3.925-5.198l1.075-17.103c.126-1.998,1.181-3.821,2.85-4.925l.969-.641c.422-.279.958.132.798.612l-.481,1.442c-.358,1.074.083,2.253,1.06,2.828l8.363,4.923c1.48.871,2.262,2.571,1.96,4.261l-3.295,18.467c-1.073,3.599.826,6.567,2.694,6.851,1.457.222,3.302-1.127,4.267-3.301,2.376-8.198,4.751-16.396,7.127-24.594.667-2.303-.101-4.782-1.953-6.305l-14.939-12.275c-1.59-1.307-2.683-3.116-3.096-5.133-.489-2.387-.516-5.441-.525-6.913-.004-.662-.004-1.653-.445-1.598-.821.102-1.988.831-3.335,1.543-1.741.919-4.026,1.759-6.572,1.709-3.131-.061-4.633-.509-5.744-1.01-1.819-.82-3.132-1.93-4.42-3.184-1.887-1.839-1.696-1.307-3.315-.126-.097.071-.397.267-.397.267-.958.645-2.125.991-.968,1.901l2.043,2.01c1.485,1.59,2.562,3.37,3.024,4.411.474,1.065,1.031,3.593,1.031,3.593.897,4.807,2.028,9.406,1.871,14.215l-.396,12.129c-.049,1.494-.948,2.828-2.314,3.434l-17.384,7.711c-2.478,1.271-3.312,4.275-2.11,6.342.995,1.712,3.261,2.565,5.401,1.876h0Z"/><path d="M81.845,50.226l3.366-3.671c1.098-1.197,1.379-2.933.715-4.415l-7.652-17.092c-.919-2.546-3.467-3.764-5.272-3.183-2.06.663-3.49,3.776-1.996,6.59,1.565,3.502,3.131,7.004,4.696,10.507,1.186,2.652.463,5.77-1.769,7.63l-4.433,3.694c-.884.737-2.42,2.187-3.49,2.612-1.269.505-3.474.657-4.7.657,0,0-1.859-.051-2.026.063-.181.123-.167.289-.155.797.019.796-.187.94,2.082,1.317,1.249.208,2.953.486,5.32-.111,1.348-.35,7.693-6.843,7.693-6.843,2.26-2.385,1.296-2.212,4.012.807.324.36.817.891,1.351,1.143.772.364,1.681.127,2.258-.502Z"/><path d="M43.203,54.93l3.651-3.776c.484-.5.501-1.289.039-1.81l-2.184-2.462c-1.433-1.616-2.135-3.752-1.94-5.903l1.189-13.084c-.235-1.758-1.58-3.136-3.225-3.374-1.884-.272-3.785,1.004-4.277,3.002-.748,5.085-1.496,10.17-2.244,15.256-.496,3.374.69,6.777,3.175,9.111l3.302,3.101c.713.67,1.833.643,2.513-.06Z"/><path d="M6.803,58.788l3.206-.019c4.03.099,7.643-.943,10.105-3.912l4.627-6.394s5.866,6.736,8.777,7.863c2.046.793,7.148,1.429,10.141.198,2.86-1.176,8.331-6.257,8.331-6.257,0,0,2.811,3.712,5.288,5.345,2.552,1.682,9.116,2.028,10.601.833,2.512-2.021,7.929-7.492,7.929-7.492,0,0,3.456,5.097,7.66,7.467,1.413.797,5.587,2.246,8.104.644,4.144-2.637,7.859-6.797,7.859-6.797l3.722,3.523c3.324,3.146,7.747,4.865,12.323,4.791l4.479-.073s-2.763,3.516-11.68,3.265c-4.247-.12-8.771-5.458-8.771-5.458,0,0-3.788,6.086-10.856,6.654-6.92.556-13.233-6.861-13.233-6.861,0,0-5.228,6.409-11.254,6.469-7.504.075-12.761-6.861-12.761-6.861,0,0-4.173,5.806-13.037,6.175-7.511.313-13.233-7.057-13.233-7.057,0,0-3.82,7.645-9.802,7.645-6.665,0-8.528-3.692-8.528-3.692h0Z"/></svg>