<?xml version="1.0" encoding="UTF-8"?><svg id="a" xmlns="http://www.w3.org/2000/svg" viewBox="0 0 128 128"><path d="M82.99,74.11c-.05-.54.39-.99.86-.97.45.02.85.45.8.97l.37,43.33c.53,2.72,2.96,4.65,5.66,4.56,2.56-.09,4.77-1.98,5.27-4.56V44.01c-.02-.61.43-1.11.96-1.16.6-.06,1.19.47,1.18,1.16v26.17c.28,2.07,2.07,3.62,4.14,3.6,2.04-.02,3.79-1.56,4.06-3.6v-29.87c0-2.28-.6-4.55-1.88-6.43-.42-.62-.93-1.24-1.54-1.84-.55-.54-1.11-.99-1.66-1.36-1.79-1.22-3.94-1.79-6.11-1.79h-19.58c-1.5,0-2.95.48-4.16,1.36h0c-1.15.85-2.14,1.9-2.92,3.1l-6.74,10.45c-1.07,1.65-2.9,2.65-4.87,2.65h-12.79c-2.1.23-3.72,1.94-3.83,3.96-.12,2.18,1.55,4.16,3.83,4.42h17.03c2.01,0,4.63-.88,5.74-2.56l5.21-7.39c.25-.31.76-.13.76.27v72.3c.39,2.35,2.16,4.16,4.28,4.49,2.61.4,5.36-1.51,5.93-4.49,0-14.44,0-28.88,0-43.33Z"/><circle cx="84.52" cy="16.33" r="9.73"/><polygon points="21.52 73.23 28.35 73.23 36.13 115.07 48.28 115.07 56.05 73.23 62.89 73.23 53.37 122 31.04 122 21.52 73.23"/><rect x="36.99" y="81.19" width="7.21" height="7.21"/><rect x="39.39" y="68.96" width="7.21" height="7.21" transform="translate(63.9 -9.15) rotate(45)"/><rect x="34.67" y="59.35" width="7.21" height="7.21" transform="translate(55.73 -8.62) rotate(45)"/></svg>