<?xml version="1.0" encoding="UTF-8"?><svg id="a" xmlns="http://www.w3.org/2000/svg" viewBox="0 0 128 128"><path d="M82.98885,74.11295c-.05275-.5419.38708-.98711.86073-.96965.4528.01669.84873.45298.79638.96965l.36658,43.3274c.52987,2.719,2.96022,4.65215,5.65743,4.55965,2.56098-.08781,4.77361-1.98161,5.2728-4.55965V44.00938c-.01926-.60804.42885-1.10909.958-1.1618.59911-.05968,1.19379.46616,1.18053,1.1618v26.17301c.27852,2.06918,2.06985,3.61981,4.14154,3.60052,2.04327-.01904,3.78974-1.55991,4.06424-3.60052v-29.87118c0-2.27916-.59502-4.54767-1.87626-6.43262-.41818-.61522-.92544-1.24035-1.54101-1.84362-.54811-.53716-1.11011-.98646-1.66181-1.36239-1.78907-1.21906-3.94015-1.7936-6.10507-1.7936h-19.58426c-1.49662,0-2.95414.47786-4.16023,1.36397h0c-1.15343.84741-2.14247,1.89825-2.91853,3.10083l-6.74233,10.44803c-1.06695,1.65336-2.90016,2.65213-4.86789,2.65213h-12.7917c-2.10246.22936-3.72089,1.94188-3.82878,3.96082-.11637,2.17772,1.55407,4.1626,3.82878,4.41745h17.02718c2.00626,0,4.63206-.88426,5.73649-2.55916l5.21469-7.39488c.25459-.31016.75765-.13013.75765.27113v72.30102c.39015,2.34776,2.1614,4.15919,4.28263,4.487,2.61417.40399,5.35853-1.5073,5.93441-4.487-.00072-14.44247-.00146-28.88493-.00218-43.3274Z"/><circle cx="84.51779" cy="16.328" r="9.73327"/><polygon points="21.52155 73.23361 28.35299 73.23361 36.12649 115.06917 48.28141 115.06917 56.05491 73.23361 62.88635 73.23361 53.36952 122.00318 31.03838 122.00318 21.52155 73.23361"/><rect x="36.98911" y="81.19437" width="7.20502" height="7.20502"/><rect x="39.39079" y="68.96085" width="7.20502" height="7.20502" transform="translate(63.90249 -9.14754) rotate(45)"/><rect x="34.67133" y="59.35415" width="7.20502" height="7.20502" transform="translate(55.72723 -8.62411) rotate(45)"/></svg>