<?xml version="1.0" encoding="UTF-8"?><svg id="a" xmlns="http://www.w3.org/2000/svg" viewBox="0 0 128 128"><path d="M82.989,74.113c-.053-.542.387-.987.861-.97.453.017.849.453.796.97l.367,43.327c.53,2.719,2.96,4.652,5.657,4.56,2.561-.088,4.774-1.982,5.273-4.56V44.009c-.019-.608.429-1.109.958-1.162.599-.06,1.194.466,1.181,1.162v26.173c.279,2.069,2.07,3.62,4.142,3.601,2.043-.019,3.79-1.56,4.064-3.601v-29.871c0-2.279-.595-4.548-1.876-6.433-.418-.615-.925-1.24-1.541-1.844-.548-.537-1.11-.986-1.662-1.362-1.789-1.219-3.94-1.794-6.105-1.794h-19.584c-1.497,0-2.954.478-4.16,1.364h0c-1.153.847-2.142,1.898-2.919,3.101l-6.742,10.448c-1.067,1.653-2.9,2.652-4.868,2.652h-12.792c-2.102.229-3.721,1.942-3.829,3.961-.116,2.178,1.554,4.163,3.829,4.417h17.027c2.006,0,4.632-.884,5.736-2.559l5.215-7.395c.255-.31.758-.13.758.271v72.301c.39,2.348,2.161,4.159,4.283,4.487,2.614.404,5.359-1.507,5.934-4.487,0-14.442-.001-28.885-.002-43.327h0Z"/><circle cx="84.518" cy="16.328" r="9.733"/><polygon points="21.522 73.234 28.353 73.234 36.126 115.069 48.281 115.069 56.055 73.234 62.886 73.234 53.37 122.003 31.038 122.003 21.522 73.234"/><rect x="36.989" y="81.194" width="7.205" height="7.205"/><rect x="39.391" y="68.961" width="7.205" height="7.205" transform="translate(-38.718 51.654) rotate(-45)"/><rect x="34.671" y="59.354" width="7.205" height="7.205" transform="translate(-33.307 45.503) rotate(-45)"/></svg>