<?xml version="1.0" encoding="UTF-8"?>
<svg width="24" height="24" viewBox="0 0 24 24" xmlns="http://www.w3.org/2000/svg">
    <path id="Path" fill="#000000" stroke="none" d="M 0 0 L 1 0 L 1 24 L 0 24 Z"/>
    <path id="Path-copy" fill="#000000" stroke="none" d="M 2 0 L 3 0 L 3 24 L 2 24 Z"/>
    <path id="Path-copy-2" fill="#000000" stroke="none" d="M 4 0 L 5 0 L 5 24 L 4 24 Z"/>
    <path id="Path-copy-3" fill="#000000" stroke="none" d="M 6 0 L 7 0 L 7 24 L 6 24 Z"/>
    <path id="Path-copy-4" fill="#000000" stroke="none" d="M 8 0 L 9 0 L 9 24 L 8 24 Z"/>
    <path id="Path-copy-5" fill="#000000" stroke="none" d="M 10 0 L 11 0 L 11 24 L 10 24 Z"/>
    <path id="Path-copy-6" fill="#000000" stroke="none" d="M 12 0 L 13 0 L 13 24 L 12 24 Z"/>
    <path id="Path-copy-7" fill="#000000" stroke="none" d="M 14 0 L 15 0 L 15 24 L 14 24 Z"/>
    <path id="Path-copy-8" fill="#000000" stroke="none" d="M 16 0 L 17 0 L 17 24 L 16 24 Z"/>
    <path id="Path-copy-9" fill="#000000" stroke="none" d="M 18 0 L 19 0 L 19 24 L 18 24 Z"/>
    <path id="Path-copy-10" fill="#000000" stroke="none" d="M 20 0 L 21 0 L 21 24 L 20 24 Z"/>
    <path id="Path-copy-11" fill="#000000" stroke="none" d="M 22 0 L 23 0 L 23 24 L 22 24 Z"/>
</svg>
