<?xml version="1.0" encoding="UTF-8"?><svg id="Project_Beta_2" xmlns="http://www.w3.org/2000/svg" viewBox="0 0 731.1 339.9"><defs><style>.cls-1{fill:#40a0ff;}.cls-1,.cls-2{fill-rule:evenodd;}.cls-1,.cls-2,.cls-3{stroke-width:0px;}.cls-2{fill:#c80096;}.cls-3{fill:#fff;}</style></defs><path id="_2" class="cls-3" d="M642.3,238l.9-6.6,15.9-23.8c.8-1.2,1.3-2.2,1.5-3.1.2-.9.4-2,.6-3.3,0-.6.2-1.2.2-1.9,0-.7,0-1.2,0-1.7-.2-.5-.4-.9-.8-1.3-.4-.3-1-.5-1.9-.5s-1.9.3-2.6.9c-.7.6-1.1,1.5-1.3,2.6l-.6,4h-7l.5-3.8c.2-1.5.7-2.8,1.4-4.1s1.6-2.4,2.7-3.4c1-1,2.2-1.7,3.6-2.3,1.4-.6,2.8-.9,4.2-.9s3.3.3,4.5,1,2.2,1.6,2.9,2.7c.7,1.1,1.1,2.4,1.3,3.9s.2,3,0,4.7c-.2,1.2-.3,2.2-.5,3s-.4,1.6-.6,2.3c-.2.7-.6,1.5-1,2.2s-1,1.6-1.7,2.7l-12.8,19.7h12.6l-1,7h-20.8Z"/><path id="A" class="cls-3" d="M598.8,287l-5.3-54.8h-.5l-21.4,54.8h27.2ZM523.8,339.8l64.7-151.1h22.7l20.1,151.1h-27.2l-3.2-32.5h-37.1l-12.8,32.5h-27.2Z"/><path id="T" class="cls-3" d="M480,339.8l19.3-130.7h-31.5l3-20.4h90.2l-3,20.4h-31.5l-19.3,130.7h-27.2Z"/><path id="E" class="cls-3" d="M363.4,339.8l22.3-151.1h81.1l-3,20.4h-53.9l-6.5,44.4h47l-3,20.4h-47l-6.5,44.4h53.9l-3.2,21.6h-81.2Z"/><path id="B" class="cls-3" d="M249.7,339.8l22.3-151.1h39.8c8.7,0,16,1.1,21.8,3.2,5.8,2.1,10.4,5,13.8,8.5s5.6,7.6,6.6,12.2c1,4.6,1.2,9.4.4,14.3l-.8,5.5c-.6,4.1-1.5,7.6-2.7,10.4-1.2,2.8-2.8,5.3-4.7,7.4-3.6,4-8.7,7.4-15.4,10.2,6,2.4,10.2,5.9,12.6,10.6,2.3,4.7,2.9,11,1.7,19.1l-1.3,8.5c-2,13.3-7.5,23.5-16.7,30.6-9.1,7.1-22.6,10.6-40.4,10.6h-37ZM287.3,269.8l-7.1,48.4h11.7c5.5,0,9.9-.6,13.2-1.9,3.3-1.3,5.9-3,7.9-5.3,1.9-2.3,3.3-5,4.1-8.1.8-3.1,1.5-6.5,2-10.2.6-3.8.8-7.1.7-10-.1-2.8-.8-5.2-2.1-7.2-1.5-2-3.7-3.4-6.6-4.4s-6.8-1.4-11.8-1.4h-12ZM296.2,209.1l-6.1,41.6h12.3c9.1,0,15.4-1.8,19.1-5.4,3.6-3.6,6-8.9,7-15.8,1-6.8,0-11.9-2.9-15.3-3-3.4-9-5.1-18.1-5.1h-11.3Z"/><path id="T-2" class="cls-3" d="M650.1,163.9l19.3-130.7h-31.5l3-20.4h90.2l-3,20.4h-31.5l-19.3,130.7h-27.2Z"/><path id="C" class="cls-3" d="M616.4,120.8l-1.4,9.3c-.7,4.7-2.5,9.1-5.3,13.3s-6.5,7.9-10.9,11.1c-4.4,3.3-9.4,5.8-14.9,7.7s-11.3,2.9-17.4,2.9-10.3-.6-15.5-1.7c-5.2-1.1-9.7-3.1-13.5-5.9-3.9-2.8-6.8-6.5-8.9-10.9-2.1-4.5-2.6-10.2-1.6-17.1l12.3-83.2c.7-5,2.5-9.6,5.2-13.8s6.3-7.9,10.7-11,9.4-5.6,15.1-7.3c5.7-1.8,11.8-2.7,18.4-2.7,12.8,0,22.7,3.3,29.7,10,3.4,3.3,5.9,7.1,7.5,11.6,1.6,4.5,2,9.3,1.2,14.5l-1.3,8.5h-27.2l1.1-7.2c.6-4.2-.3-7.9-2.9-11-2.6-3.1-6.4-4.7-11.6-4.7s-11.5,1.7-14.2,5-4.4,7.5-5.2,12.6l-11.3,77.2c-.6,4.4,0,8.1,2,11,2,3,6.1,4.5,12.3,4.5s3.7-.2,5.8-.7,4.2-1.3,6.1-2.4c1.8-1.1,3.3-2.7,4.7-4.7s2.3-4.5,2.7-7.4l1.1-7.4h27.2Z"/><path id="E-2" class="cls-3" d="M424.8,163.9l22.3-151.1h81.1l-3,20.4h-53.9l-6.5,44.4h47l-3,20.4h-47l-6.5,44.4h53.9l-3.2,21.6h-81.2Z"/><path id="J" class="cls-3" d="M343,138.4c1.6,1.4,3.5,2.5,5.7,3.5,2.4,1.1,5.1,1.6,7.9,1.6s3.5-.2,5.7-.7,4.4-1.5,6.6-2.9c2.1-1.3,4-3.1,5.6-5.4,1.6-2.3,2.7-5.4,3.2-9.2l16.6-112.5h27.2l-17,115.5c-1.5,10.3-6.9,19-16.1,25.9-4.6,3.4-9.8,6.1-15.7,8.1-5.9,2-12.6,3-20.1,3s-15.7-1.5-21.1-4.6c-1.3-.7-2.5-1.4-3.6-2.2,5.5-5.8,10.5-12.6,15.1-20.1Z"/><g id="O"><path id="Pink" class="cls-2" d="M300,0l-2.1,14.5c14.7.6,27.4,14.2,30.7,37.8,0,.3.1.7.3,1.2,1,9.3.8,19.8-.9,31.1-6,41.2-28.8,77.8-52,79.4l-1.7,11.7c29-1.3,57.9-40.2,64.8-87.8S328.6,1.3,300,0ZM276.4,160.9c15.6-6.2,29.8-26.5,35.6-51.6-7.2,20.8-20.2,36.7-34.1,41.3l-1.5,10.3Z"/><path id="Blue" class="cls-1" d="M296.9,0l-1.8,12.2c-.1,0-1.1,3.5-1.1,3.5l-2.2,7.5-.7-7.2v-3.3c-.9.1-1.6.3-2.4.5l-.6,3.4-1.7,7.7-1.3-6.7-.4-3c-.8.3-1.5.6-2.3,1l-.3,3.3-1.1,7.7-1.9-6.2-.6-2.7c-.8.5-1.5,1-2.3,1.5v3l-.4,7.6-2.5-5.5-.8-2.3c-.8.6-1.5,1.3-2.3,1.9l.2,2.7.2,7.4-3-4.8-1-1.9c-.7.8-1.5,1.6-2.2,2.4l.4,2.4.8,7.1-3.5-4-1.1-1.5c-.7.9-1.4,1.8-2.1,2.8l.6,2.1,1.5,6.6-3.9-3.1-1.2-1.2c-.6,1-1.3,2.1-1.9,3.2l.8,1.8,2,6-4.2-2.1-1.2-.8c-.6,1.1-1.1,2.3-1.7,3.5l.9,1.5,2.6,5.4-4.5-1.1-1.3-.5c-.5,1.2-1,2.5-1.5,3.7l1,1.2,3.1,4.6h-4.7c0,0-1.3-.3-1.3-.3-.4,1.3-.8,2.6-1.2,3.9l1.1.9,3.6,3.7-4.8.9h-1.3c-.3,1.4-.6,2.8-.9,4.1l1.2.6,4,2.8-4.8,1.9-1.3.3c-.1.7-.2,1.3-.3,2s-.2,1.4-.3,2l1.2.3,4.3,1.9-4.8,2.8-1.3.6c-.1,1.3-.2,2.7-.3,4h1.3c0,0,4.6,1,4.6,1l-4.7,3.7-1.3.9c0,1.3,0,2.6.1,3.9l1.4-.2h4.7c0,0-4.5,4.5-4.5,4.5l-1.3,1.2c.1,1.3.2,2.5.4,3.7l1.4-.5,4.8-1.1-4.2,5.4-1.3,1.5c.2,1.2.4,2.3.7,3.5l1.5-.8,4.8-2.1-3.8,6-1.3,1.8c.3,1.1.6,2.1,1,3.2l1.5-1.2,4.8-3.1-3.4,6.6-1.2,2.1c.4,1,.8,1.9,1.2,2.8l1.5-1.5,4.6-4-2.9,7.1-1.1,2.4c.5.8,1,1.6,1.5,2.4l1.5-1.9,4.4-4.8-2.4,7.4-1,2.7c.6.7,1.1,1.3,1.7,1.9l1.5-2.3,4.1-5.5-1.8,7.6-.9,3c.6.5,1.2,1,1.9,1.5l1.4-2.7,3.7-6.2-1.2,7.7-.7,3.3c.7.4,1.3.7,2,1l1.3-3,3.3-6.7-.6,7.7-.4,3.4c.7.2,1.4.4,2.1.5l1.1-3.3,2.8-7.2v7.5c.1,0,.1,3.5.2,3.5l-1.8,12.1c-28.6-1.3-46.1-40.2-39.1-87.8S267.9,1.3,296.9,0Z"/></g><path id="R" class="cls-3" d="M155.1,33.2l-7,47.1h15.5c4.8,0,8.7-.5,11.7-1.6s5.5-2.6,7.3-4.6c1.7-2,3.1-4.4,4-7.3,1-2.9,1.7-6.3,2.3-10.1s.8-7.2.7-10.1c-.1-2.9-.8-5.4-2.1-7.5-2.8-4-8.9-5.9-18.3-5.9,0,0-14.1,0-14.1,0ZM108.6,163.9L130.9,12.8h43.8c32,0,45.9,14.8,41.5,44.4-1.3,8.9-4.2,16.5-8.6,22.7-4.4,6.2-11.2,11.2-20.5,15.1l19.2,69h-28.8l-15.8-64.5h-16.3l-9.5,64.5h-27.3Z"/><path id="P" class="cls-3" d="M0,163.9L22.3,12.8h40.8c7.5,0,13.9.8,19.4,2.3,5.5,1.6,10.2,4.3,14.3,8.3,4,4,6.6,8.6,7.6,13.9,1,5.3.8,12.5-.5,21.5-1,6.8-2.3,12.5-4,17.2s-4.4,9.1-8.2,13.2c-4.5,5-10,8.8-16.7,11.6-6.6,2.8-15,4.1-25.2,4.1h-13.9l-8.7,59H0ZM46.5,33.2l-7.6,51.4h13.1c5.5,0,9.9-.6,13.1-1.9s5.7-3,7.5-5.3c1.7-2.1,3-4.7,3.7-7.9.7-3.1,1.4-6.6,1.9-10.4.5-3.5.9-6.9,1.2-10.1.3-3.2,0-6-1.2-8.4s-2.9-4.2-5.6-5.5-6.7-1.9-12-1.9c0,0-14.1,0-14.1,0Z"/></svg>